<?xml version="1.0" encoding="UTF-8" standalone="no"?>
<!DOCTYPE svg PUBLIC "-//W3C//DTD SVG 1.1//EN"
 "http://www.w3.org/Graphics/SVG/1.1/DTD/svg11.dtd">
<!-- Generated by graphviz version 2.43.0 (0)
 -->
<!-- Title: ComponentArchitecture Pages: 1 -->
<svg width="3584pt" height="99pt"
 viewBox="0.00 0.00 3584.00 99.00" xmlns="http://www.w3.org/2000/svg" xmlns:xlink="http://www.w3.org/1999/xlink">
<g id="graph0" class="graph" transform="scale(1 1) rotate(0) translate(4 95)">
<title>ComponentArchitecture</title>
<polygon fill="white" stroke="transparent" points="-4,4 -4,-95 3580,-95 3580,4 -4,4"/>
<g id="clust1" class="cluster">
<title>cluster_hardware</title>
<polygon fill="lightgrey" stroke="black" points="8,-8 8,-83 1080,-83 1080,-8 8,-8"/>
<text text-anchor="middle" x="544" y="-67.8" font-family="Times,serif" font-size="14.00">Hardware Layer</text>
</g>
<g id="clust2" class="cluster">
<title>cluster_tasks</title>
<polygon fill="lightyellow" stroke="black" points="1088,-8 1088,-83 3193,-83 3193,-8 1088,-8"/>
<text text-anchor="middle" x="2140.5" y="-67.8" font-family="Times,serif" font-size="14.00">Task Layer</text>
</g>
<!-- src_hardware -->
<g id="node1" class="node">
<title>src_hardware</title>
<polygon fill="lightblue" stroke="black" points="1071.5,-52 986.5,-52 986.5,-48 982.5,-48 982.5,-44 986.5,-44 986.5,-24 982.5,-24 982.5,-20 986.5,-20 986.5,-16 1071.5,-16 1071.5,-52"/>
<polyline fill="none" stroke="black" points="986.5,-48 990.5,-48 990.5,-44 986.5,-44 "/>
<polyline fill="none" stroke="black" points="986.5,-24 990.5,-24 990.5,-20 986.5,-20 "/>
<text text-anchor="middle" x="1029" y="-30.3" font-family="Times,serif" font-size="14.00">hardware</text>
</g>
<!-- src_hardware_ads1115 -->
<g id="node2" class="node">
<title>src_hardware_ads1115</title>
<polygon fill="lightblue" stroke="black" points="968.5,-52 891.5,-52 891.5,-48 887.5,-48 887.5,-44 891.5,-44 891.5,-24 887.5,-24 887.5,-20 891.5,-20 891.5,-16 968.5,-16 968.5,-52"/>
<polyline fill="none" stroke="black" points="891.5,-48 895.5,-48 895.5,-44 891.5,-44 "/>
<polyline fill="none" stroke="black" points="891.5,-24 895.5,-24 895.5,-20 891.5,-20 "/>
<text text-anchor="middle" x="930" y="-30.3" font-family="Times,serif" font-size="14.00">ads1115</text>
</g>
<!-- src_hardware_gpio -->
<g id="node3" class="node">
<title>src_hardware_gpio</title>
<polygon fill="lightblue" stroke="black" points="873,-52 819,-52 819,-48 815,-48 815,-44 819,-44 819,-24 815,-24 815,-20 819,-20 819,-16 873,-16 873,-52"/>
<polyline fill="none" stroke="black" points="819,-48 823,-48 823,-44 819,-44 "/>
<polyline fill="none" stroke="black" points="819,-24 823,-24 823,-20 819,-20 "/>
<text text-anchor="middle" x="846" y="-30.3" font-family="Times,serif" font-size="14.00">gpio</text>
</g>
<!-- src_hardware_hw -->
<g id="node4" class="node">
<title>src_hardware_hw</title>
<polygon fill="lightblue" stroke="black" points="801,-52 747,-52 747,-48 743,-48 743,-44 747,-44 747,-24 743,-24 743,-20 747,-20 747,-16 801,-16 801,-52"/>
<polyline fill="none" stroke="black" points="747,-48 751,-48 751,-44 747,-44 "/>
<polyline fill="none" stroke="black" points="747,-24 751,-24 751,-20 747,-20 "/>
<text text-anchor="middle" x="774" y="-30.3" font-family="Times,serif" font-size="14.00">hw</text>
</g>
<!-- src_hardware_i2c_bus -->
<g id="node5" class="node">
<title>src_hardware_i2c_bus</title>
<polygon fill="lightblue" stroke="black" points="729,-52 659,-52 659,-48 655,-48 655,-44 659,-44 659,-24 655,-24 655,-20 659,-20 659,-16 729,-16 729,-52"/>
<polyline fill="none" stroke="black" points="659,-48 663,-48 663,-44 659,-44 "/>
<polyline fill="none" stroke="black" points="659,-24 663,-24 663,-20 659,-20 "/>
<text text-anchor="middle" x="694" y="-30.3" font-family="Times,serif" font-size="14.00">i2c_bus</text>
</g>
<!-- src_hardware_mock_hw -->
<g id="node6" class="node">
<title>src_hardware_mock_hw</title>
<polygon fill="lightblue" stroke="black" points="641,-52 559,-52 559,-48 555,-48 555,-44 559,-44 559,-24 555,-24 555,-20 559,-20 559,-16 641,-16 641,-52"/>
<polyline fill="none" stroke="black" points="559,-48 563,-48 563,-44 559,-44 "/>
<polyline fill="none" stroke="black" points="559,-24 563,-24 563,-20 559,-20 "/>
<text text-anchor="middle" x="600" y="-30.3" font-family="Times,serif" font-size="14.00">mock_hw</text>
</g>
<!-- src_hardware_pcf8574 -->
<g id="node7" class="node">
<title>src_hardware_pcf8574</title>
<polygon fill="lightblue" stroke="black" points="541,-52 467,-52 467,-48 463,-48 463,-44 467,-44 467,-24 463,-24 463,-20 467,-20 467,-16 541,-16 541,-52"/>
<polyline fill="none" stroke="black" points="467,-48 471,-48 471,-44 467,-44 "/>
<polyline fill="none" stroke="black" points="467,-24 471,-24 471,-20 467,-20 "/>
<text text-anchor="middle" x="504" y="-30.3" font-family="Times,serif" font-size="14.00">pcf8574</text>
</g>
<!-- src_hardware_pcf_leds -->
<g id="node8" class="node">
<title>src_hardware_pcf_leds</title>
<polygon fill="lightblue" stroke="black" points="449,-52 375,-52 375,-48 371,-48 371,-44 375,-44 375,-24 371,-24 371,-20 375,-20 375,-16 449,-16 449,-52"/>
<polyline fill="none" stroke="black" points="375,-48 379,-48 379,-44 375,-44 "/>
<polyline fill="none" stroke="black" points="375,-24 379,-24 379,-20 375,-20 "/>
<text text-anchor="middle" x="412" y="-30.3" font-family="Times,serif" font-size="14.00">pcf_leds</text>
</g>
<!-- src_hardware_pcf_relays -->
<g id="node9" class="node">
<title>src_hardware_pcf_relays</title>
<polygon fill="lightblue" stroke="black" points="356.5,-52 267.5,-52 267.5,-48 263.5,-48 263.5,-44 267.5,-44 267.5,-24 263.5,-24 263.5,-20 267.5,-20 267.5,-16 356.5,-16 356.5,-52"/>
<polyline fill="none" stroke="black" points="267.5,-48 271.5,-48 271.5,-44 267.5,-44 "/>
<polyline fill="none" stroke="black" points="267.5,-24 271.5,-24 271.5,-20 267.5,-20 "/>
<text text-anchor="middle" x="312" y="-30.3" font-family="Times,serif" font-size="14.00">pcf_relays</text>
</g>
<!-- src_hardware_pms1003 -->
<g id="node10" class="node">
<title>src_hardware_pms1003</title>
<polygon fill="lightblue" stroke="black" points="249.5,-52 166.5,-52 166.5,-48 162.5,-48 162.5,-44 166.5,-44 166.5,-24 162.5,-24 162.5,-20 166.5,-20 166.5,-16 249.5,-16 249.5,-52"/>
<polyline fill="none" stroke="black" points="166.5,-48 170.5,-48 170.5,-44 166.5,-44 "/>
<polyline fill="none" stroke="black" points="166.5,-24 170.5,-24 170.5,-20 166.5,-20 "/>
<text text-anchor="middle" x="208" y="-30.3" font-family="Times,serif" font-size="14.00">pms1003</text>
</g>
<!-- src_hardware_relays -->
<g id="node11" class="node">
<title>src_hardware_relays</title>
<polygon fill="lightblue" stroke="black" points="148,-52 88,-52 88,-48 84,-48 84,-44 88,-44 88,-24 84,-24 84,-20 88,-20 88,-16 148,-16 148,-52"/>
<polyline fill="none" stroke="black" points="88,-48 92,-48 92,-44 88,-44 "/>
<polyline fill="none" stroke="black" points="88,-24 92,-24 92,-20 88,-20 "/>
<text text-anchor="middle" x="118" y="-30.3" font-family="Times,serif" font-size="14.00">relays</text>
</g>
<!-- src_hardware_uart -->
<g id="node12" class="node">
<title>src_hardware_uart</title>
<polygon fill="lightblue" stroke="black" points="70,-52 16,-52 16,-48 12,-48 12,-44 16,-44 16,-24 12,-24 12,-20 16,-20 16,-16 70,-16 70,-52"/>
<polyline fill="none" stroke="black" points="16,-48 20,-48 20,-44 16,-44 "/>
<polyline fill="none" stroke="black" points="16,-24 20,-24 20,-20 16,-20 "/>
<text text-anchor="middle" x="43" y="-30.3" font-family="Times,serif" font-size="14.00">uart</text>
</g>
<!-- src_tasks -->
<g id="node13" class="node">
<title>src_tasks</title>
<polygon fill="lightgreen" stroke="black" points="3185,-52 3131,-52 3131,-48 3127,-48 3127,-44 3131,-44 3131,-24 3127,-24 3127,-20 3131,-20 3131,-16 3185,-16 3185,-52"/>
<polyline fill="none" stroke="black" points="3131,-48 3135,-48 3135,-44 3131,-44 "/>
<polyline fill="none" stroke="black" points="3131,-24 3135,-24 3135,-20 3131,-20 "/>
<text text-anchor="middle" x="3158" y="-30.3" font-family="Times,serif" font-size="14.00">tasks</text>
</g>
<!-- src_tasks_adc_watch -->
<g id="node14" class="node">
<title>src_tasks_adc_watch</title>
<polygon fill="lightgreen" stroke="black" points="3112.5,-52 3021.5,-52 3021.5,-48 3017.5,-48 3017.5,-44 3021.5,-44 3021.5,-24 3017.5,-24 3017.5,-20 3021.5,-20 3021.5,-16 3112.5,-16 3112.5,-52"/>
<polyline fill="none" stroke="black" points="3021.5,-48 3025.5,-48 3025.5,-44 3021.5,-44 "/>
<polyline fill="none" stroke="black" points="3021.5,-24 3025.5,-24 3025.5,-20 3021.5,-20 "/>
<text text-anchor="middle" x="3067" y="-30.3" font-family="Times,serif" font-size="14.00">adc_watch</text>
</g>
<!-- src_tasks_aqm_announcer -->
<g id="node15" class="node">
<title>src_tasks_aqm_announcer</title>
<polygon fill="lightgreen" stroke="black" points="3003.5,-52 2874.5,-52 2874.5,-48 2870.5,-48 2870.5,-44 2874.5,-44 2874.5,-24 2870.5,-24 2870.5,-20 2874.5,-20 2874.5,-16 3003.5,-16 3003.5,-52"/>
<polyline fill="none" stroke="black" points="2874.5,-48 2878.5,-48 2878.5,-44 2874.5,-44 "/>
<polyline fill="none" stroke="black" points="2874.5,-24 2878.5,-24 2878.5,-20 2874.5,-20 "/>
<text text-anchor="middle" x="2939" y="-30.3" font-family="Times,serif" font-size="14.00">aqm_announcer</text>
</g>
<!-- src_tasks_aqm_policy -->
<g id="node16" class="node">
<title>src_tasks_aqm_policy</title>
<polygon fill="lightgreen" stroke="black" points="2856,-52 2760,-52 2760,-48 2756,-48 2756,-44 2760,-44 2760,-24 2756,-24 2756,-20 2760,-20 2760,-16 2856,-16 2856,-52"/>
<polyline fill="none" stroke="black" points="2760,-48 2764,-48 2764,-44 2760,-44 "/>
<polyline fill="none" stroke="black" points="2760,-24 2764,-24 2764,-20 2760,-20 "/>
<text text-anchor="middle" x="2808" y="-30.3" font-family="Times,serif" font-size="14.00">aqm_policy</text>
</g>
<!-- src_tasks_aqm_reader -->
<g id="node17" class="node">
<title>src_tasks_aqm_reader</title>
<polygon fill="lightgreen" stroke="black" points="2741.5,-52 2640.5,-52 2640.5,-48 2636.5,-48 2636.5,-44 2640.5,-44 2640.5,-24 2636.5,-24 2636.5,-20 2640.5,-20 2640.5,-16 2741.5,-16 2741.5,-52"/>
<polyline fill="none" stroke="black" points="2640.5,-48 2644.5,-48 2644.5,-44 2640.5,-44 "/>
<polyline fill="none" stroke="black" points="2640.5,-24 2644.5,-24 2644.5,-20 2640.5,-20 "/>
<text text-anchor="middle" x="2691" y="-30.3" font-family="Times,serif" font-size="14.00">aqm_reader</text>
</g>
<!-- src_tasks_collector_controller -->
<g id="node18" class="node">
<title>src_tasks_collector_controller</title>
<polygon fill="lightgreen" stroke="black" points="2622.5,-52 2467.5,-52 2467.5,-48 2463.5,-48 2463.5,-44 2467.5,-44 2467.5,-24 2463.5,-24 2463.5,-20 2467.5,-20 2467.5,-16 2622.5,-16 2622.5,-52"/>
<polyline fill="none" stroke="black" points="2467.5,-48 2471.5,-48 2471.5,-44 2467.5,-44 "/>
<polyline fill="none" stroke="black" points="2467.5,-24 2471.5,-24 2471.5,-20 2467.5,-20 "/>
<text text-anchor="middle" x="2545" y="-30.3" font-family="Times,serif" font-size="14.00">collector_controller</text>
</g>
<!-- src_tasks_collector_ssr_controller -->
<g id="node19" class="node">
<title>src_tasks_collector_ssr_controller</title>
<polygon fill="lightgreen" stroke="black" points="2449.5,-52 2266.5,-52 2266.5,-48 2262.5,-48 2262.5,-44 2266.5,-44 2266.5,-24 2262.5,-24 2262.5,-20 2266.5,-20 2266.5,-16 2449.5,-16 2449.5,-52"/>
<polyline fill="none" stroke="black" points="2266.5,-48 2270.5,-48 2270.5,-44 2266.5,-44 "/>
<polyline fill="none" stroke="black" points="2266.5,-24 2270.5,-24 2270.5,-20 2266.5,-20 "/>
<text text-anchor="middle" x="2358" y="-30.3" font-family="Times,serif" font-size="14.00">collector_ssr_controller</text>
</g>
<!-- src_tasks_display_status -->
<g id="node20" class="node">
<title>src_tasks_display_status</title>
<polygon fill="lightgreen" stroke="black" points="2248.5,-52 2129.5,-52 2129.5,-48 2125.5,-48 2125.5,-44 2129.5,-44 2129.5,-24 2125.5,-24 2125.5,-20 2129.5,-20 2129.5,-16 2248.5,-16 2248.5,-52"/>
<polyline fill="none" stroke="black" points="2129.5,-48 2133.5,-48 2133.5,-44 2129.5,-44 "/>
<polyline fill="none" stroke="black" points="2129.5,-24 2133.5,-24 2133.5,-20 2129.5,-20 "/>
<text text-anchor="middle" x="2189" y="-30.3" font-family="Times,serif" font-size="14.00">display_status</text>
</g>
<!-- src_tasks_funhouse -->
<g id="node21" class="node">
<title>src_tasks_funhouse</title>
<polygon fill="lightgreen" stroke="black" points="2111,-52 2029,-52 2029,-48 2025,-48 2025,-44 2029,-44 2029,-24 2025,-24 2025,-20 2029,-20 2029,-16 2111,-16 2111,-52"/>
<polyline fill="none" stroke="black" points="2029,-48 2033,-48 2033,-44 2029,-44 "/>
<polyline fill="none" stroke="black" points="2029,-24 2033,-24 2033,-20 2029,-20 "/>
<text text-anchor="middle" x="2070" y="-30.3" font-family="Times,serif" font-size="14.00">funhouse</text>
</g>
<!-- src_tasks_gate4_led_diag -->
<g id="node22" class="node">
<title>src_tasks_gate4_led_diag</title>
<polygon fill="lightgreen" stroke="black" points="2010.5,-52 1887.5,-52 1887.5,-48 1883.5,-48 1883.5,-44 1887.5,-44 1887.5,-24 1883.5,-24 1883.5,-20 1887.5,-20 1887.5,-16 2010.5,-16 2010.5,-52"/>
<polyline fill="none" stroke="black" points="1887.5,-48 1891.5,-48 1891.5,-44 1887.5,-44 "/>
<polyline fill="none" stroke="black" points="1887.5,-24 1891.5,-24 1891.5,-20 1887.5,-20 "/>
<text text-anchor="middle" x="1949" y="-30.3" font-family="Times,serif" font-size="14.00">gate4_led_diag</text>
</g>
<!-- src_tasks_gate_controller -->
<g id="node23" class="node">
<title>src_tasks_gate_controller</title>
<polygon fill="lightgreen" stroke="black" points="1869.5,-52 1744.5,-52 1744.5,-48 1740.5,-48 1740.5,-44 1744.5,-44 1744.5,-24 1740.5,-24 1740.5,-20 1744.5,-20 1744.5,-16 1869.5,-16 1869.5,-52"/>
<polyline fill="none" stroke="black" points="1744.5,-48 1748.5,-48 1748.5,-44 1744.5,-44 "/>
<polyline fill="none" stroke="black" points="1744.5,-24 1748.5,-24 1748.5,-20 1744.5,-20 "/>
<text text-anchor="middle" x="1807" y="-30.3" font-family="Times,serif" font-size="14.00">gate_controller</text>
</g>
<!-- src_tasks_lathe_gate_controller -->
<g id="node24" class="node">
<title>src_tasks_lathe_gate_controller</title>
<polygon fill="lightgreen" stroke="black" points="1726.5,-52 1559.5,-52 1559.5,-48 1555.5,-48 1555.5,-44 1559.5,-44 1559.5,-24 1555.5,-24 1555.5,-20 1559.5,-20 1559.5,-16 1726.5,-16 1726.5,-52"/>
<polyline fill="none" stroke="black" points="1559.5,-48 1563.5,-48 1563.5,-44 1559.5,-44 "/>
<polyline fill="none" stroke="black" points="1559.5,-24 1563.5,-24 1563.5,-20 1559.5,-20 "/>
<text text-anchor="middle" x="1643" y="-30.3" font-family="Times,serif" font-size="14.00">lathe_gate_controller</text>
</g>
<!-- src_tasks_machine_manager -->
<g id="node25" class="node">
<title>src_tasks_machine_manager</title>
<polygon fill="lightgreen" stroke="black" points="1541,-52 1395,-52 1395,-48 1391,-48 1391,-44 1395,-44 1395,-24 1391,-24 1391,-20 1395,-20 1395,-16 1541,-16 1541,-52"/>
<polyline fill="none" stroke="black" points="1395,-48 1399,-48 1399,-44 1395,-44 "/>
<polyline fill="none" stroke="black" points="1395,-24 1399,-24 1399,-20 1395,-20 "/>
<text text-anchor="middle" x="1468" y="-30.3" font-family="Times,serif" font-size="14.00">machine_manager</text>
</g>
<!-- src_tasks_saw_gate_controller -->
<g id="node26" class="node">
<title>src_tasks_saw_gate_controller</title>
<polygon fill="lightgreen" stroke="black" points="1376.5,-52 1217.5,-52 1217.5,-48 1213.5,-48 1213.5,-44 1217.5,-44 1217.5,-24 1213.5,-24 1213.5,-20 1217.5,-20 1217.5,-16 1376.5,-16 1376.5,-52"/>
<polyline fill="none" stroke="black" points="1217.5,-48 1221.5,-48 1221.5,-44 1217.5,-44 "/>
<polyline fill="none" stroke="black" points="1217.5,-24 1221.5,-24 1221.5,-20 1217.5,-20 "/>
<text text-anchor="middle" x="1297" y="-30.3" font-family="Times,serif" font-size="14.00">saw_gate_controller</text>
</g>
<!-- src_tasks_sys_monitor -->
<g id="node27" class="node">
<title>src_tasks_sys_monitor</title>
<polygon fill="lightgreen" stroke="black" points="1199.5,-52 1096.5,-52 1096.5,-48 1092.5,-48 1092.5,-44 1096.5,-44 1096.5,-24 1092.5,-24 1092.5,-20 1096.5,-20 1096.5,-16 1199.5,-16 1199.5,-52"/>
<polyline fill="none" stroke="black" points="1096.5,-48 1100.5,-48 1100.5,-44 1096.5,-44 "/>
<polyline fill="none" stroke="black" points="1096.5,-24 1100.5,-24 1100.5,-20 1096.5,-20 "/>
<text text-anchor="middle" x="1148" y="-30.3" font-family="Times,serif" font-size="14.00">sys_monitor</text>
</g>
<!-- src_config_loader -->
<g id="node28" class="node">
<title>src_config_loader</title>
<polygon fill="orange" stroke="black" points="3314.5,-52 3203.5,-52 3203.5,-16 3314.5,-16 3314.5,-52"/>
<text text-anchor="middle" x="3259" y="-30.3" font-family="Times,serif" font-size="14.00">config_loader</text>
</g>
<!-- src_event_bus -->
<g id="node29" class="node">
<title>src_event_bus</title>
<polygon fill="orange" stroke="black" points="3421.5,-52 3332.5,-52 3332.5,-16 3421.5,-16 3421.5,-52"/>
<text text-anchor="middle" x="3377" y="-30.3" font-family="Times,serif" font-size="14.00">event_bus</text>
</g>
<!-- src_events -->
<g id="node30" class="node">
<title>src_events</title>
<polygon fill="orange" stroke="black" points="3504,-52 3440,-52 3440,-16 3504,-16 3504,-52"/>
<text text-anchor="middle" x="3472" y="-30.3" font-family="Times,serif" font-size="14.00">events</text>
</g>
<!-- src_main -->
<g id="node31" class="node">
<title>src_main</title>
<polygon fill="orange" stroke="black" points="3576,-52 3522,-52 3522,-16 3576,-16 3576,-52"/>
<text text-anchor="middle" x="3549" y="-30.3" font-family="Times,serif" font-size="14.00">main</text>
</g>
</g>
</svg>
