<?xml version="1.0" encoding="UTF-8" standalone="no"?>
<!DOCTYPE svg PUBLIC "-//W3C//DTD SVG 1.1//EN"
 "http://www.w3.org/Graphics/SVG/1.1/DTD/svg11.dtd">
<!-- Generated by graphviz version 2.43.0 (0)
 -->
<!-- Title: EventFlow Pages: 1 -->
<svg width="1155pt" height="572pt"
 viewBox="0.00 0.00 1154.87 571.65" xmlns="http://www.w3.org/2000/svg" xmlns:xlink="http://www.w3.org/1999/xlink">
<g id="graph0" class="graph" transform="scale(1 1) rotate(0) translate(4 567.65)">
<title>EventFlow</title>
<polygon fill="white" stroke="transparent" points="-4,4 -4,-567.65 1150.87,-567.65 1150.87,4 -4,4"/>
<!-- evt_aqm_metrics -->
<g id="node1" class="node">
<title>evt_aqm_metrics</title>
<ellipse fill="lightyellow" stroke="black" cx="290.89" cy="-269.65" rx="68.79" ry="18"/>
<text text-anchor="middle" x="290.89" y="-265.95" font-family="Times,serif" font-size="14.00">aqm.metrics</text>
</g>
<!-- src_tasks_machine_manager -->
<g id="node7" class="node">
<title>src_tasks_machine_manager</title>
<polygon fill="lightgreen" stroke="black" points="621.29,-287.65 402.29,-287.65 402.29,-251.65 621.29,-251.65 621.29,-287.65"/>
<text text-anchor="middle" x="511.79" y="-265.95" font-family="Times,serif" font-size="14.00">src_tasks_machine_manager</text>
</g>
<!-- evt_aqm_metrics&#45;&gt;src_tasks_machine_manager -->
<g id="edge14" class="edge">
<title>evt_aqm_metrics&#45;&gt;src_tasks_machine_manager</title>
<path fill="none" stroke="green" d="M359.95,-269.65C370.23,-269.65 381.09,-269.65 392.07,-269.65"/>
<polygon fill="green" stroke="green" points="392.17,-273.15 402.17,-269.65 392.17,-266.15 392.17,-273.15"/>
</g>
<!-- src_tasks_aqm_announcer -->
<g id="node9" class="node">
<title>src_tasks_aqm_announcer</title>
<polygon fill="lightgreen" stroke="black" points="1119.87,-280.65 917.87,-280.65 917.87,-244.65 1119.87,-244.65 1119.87,-280.65"/>
<text text-anchor="middle" x="1018.87" y="-258.95" font-family="Times,serif" font-size="14.00">src_tasks_aqm_announcer</text>
</g>
<!-- evt_aqm_metrics&#45;&gt;src_tasks_aqm_announcer -->
<g id="edge6" class="edge">
<title>evt_aqm_metrics&#45;&gt;src_tasks_aqm_announcer</title>
<path fill="none" stroke="green" d="M335.14,-255.78C353.61,-250.55 375.55,-245.23 395.79,-242.65 598.18,-216.78 651.21,-230.2 854.87,-242.65 871.88,-243.69 889.83,-245.33 907.36,-247.24"/>
<polygon fill="green" stroke="green" points="907.29,-250.76 917.62,-248.39 908.07,-243.8 907.29,-250.76"/>
</g>
<!-- src_tasks_aqm_policy -->
<g id="node10" class="node">
<title>src_tasks_aqm_policy</title>
<polygon fill="lightgreen" stroke="black" points="1103.37,-405.65 934.37,-405.65 934.37,-369.65 1103.37,-369.65 1103.37,-405.65"/>
<text text-anchor="middle" x="1018.87" y="-383.95" font-family="Times,serif" font-size="14.00">src_tasks_aqm_policy</text>
</g>
<!-- evt_aqm_metrics&#45;&gt;src_tasks_aqm_policy -->
<g id="edge7" class="edge">
<title>evt_aqm_metrics&#45;&gt;src_tasks_aqm_policy</title>
<path fill="none" stroke="green" d="M318.57,-286.36C338.93,-298.27 368.11,-313.54 395.79,-321.65 420.75,-328.96 756.76,-362.29 924.28,-378.6"/>
<polygon fill="green" stroke="green" points="924.04,-382.1 934.33,-379.58 924.71,-375.13 924.04,-382.1"/>
</g>
<!-- src_tasks_collector_controller -->
<g id="node11" class="node">
<title>src_tasks_collector_controller</title>
<polygon fill="lightgreen" stroke="black" points="1132.37,-215.65 905.37,-215.65 905.37,-179.65 1132.37,-179.65 1132.37,-215.65"/>
<text text-anchor="middle" x="1018.87" y="-193.95" font-family="Times,serif" font-size="14.00">src_tasks_collector_controller</text>
</g>
<!-- evt_aqm_metrics&#45;&gt;src_tasks_collector_controller -->
<g id="edge8" class="edge">
<title>evt_aqm_metrics&#45;&gt;src_tasks_collector_controller</title>
<path fill="none" stroke="green" d="M321.36,-253.43C341.63,-243.15 369.54,-230.68 395.79,-224.65 565.68,-185.58 768.37,-185.01 895.13,-189.95"/>
<polygon fill="green" stroke="green" points="895.13,-193.45 905.26,-190.36 895.41,-186.46 895.13,-193.45"/>
</g>
<!-- src_tasks_collector_ssr_controller -->
<g id="node12" class="node">
<title>src_tasks_collector_ssr_controller</title>
<polygon fill="lightgreen" stroke="black" points="1146.87,-104.65 890.87,-104.65 890.87,-68.65 1146.87,-68.65 1146.87,-104.65"/>
<text text-anchor="middle" x="1018.87" y="-82.95" font-family="Times,serif" font-size="14.00">src_tasks_collector_ssr_controller</text>
</g>
<!-- evt_aqm_metrics&#45;&gt;src_tasks_collector_ssr_controller -->
<g id="edge9" class="edge">
<title>evt_aqm_metrics&#45;&gt;src_tasks_collector_ssr_controller</title>
<path fill="none" stroke="green" d="M294.41,-251.58C301.44,-208.93 325.59,-102.33 395.79,-58.65 576.84,54.02 848.21,-23.56 963.23,-65.1"/>
<polygon fill="green" stroke="green" points="962.29,-68.48 972.88,-68.63 964.69,-61.91 962.29,-68.48"/>
</g>
<!-- src_tasks_display_status -->
<g id="node13" class="node">
<title>src_tasks_display_status</title>
<polygon fill="lightgreen" stroke="black" points="1114.37,-465.65 923.37,-465.65 923.37,-429.65 1114.37,-429.65 1114.37,-465.65"/>
<text text-anchor="middle" x="1018.87" y="-443.95" font-family="Times,serif" font-size="14.00">src_tasks_display_status</text>
</g>
<!-- evt_aqm_metrics&#45;&gt;src_tasks_display_status -->
<g id="edge10" class="edge">
<title>evt_aqm_metrics&#45;&gt;src_tasks_display_status</title>
<path fill="none" stroke="green" d="M294.41,-287.72C301.44,-330.36 325.59,-436.96 395.79,-480.65 482.41,-534.55 753.36,-490.82 854.87,-480.65 881.12,-478.02 909.4,-473.06 934.91,-467.77"/>
<polygon fill="green" stroke="green" points="935.85,-471.15 944.91,-465.65 934.4,-464.3 935.85,-471.15"/>
</g>
<!-- src_tasks_funhouse -->
<g id="node14" class="node">
<title>src_tasks_funhouse</title>
<polygon fill="lightgreen" stroke="black" points="589.29,-157.65 434.29,-157.65 434.29,-121.65 589.29,-121.65 589.29,-157.65"/>
<text text-anchor="middle" x="511.79" y="-135.95" font-family="Times,serif" font-size="14.00">src_tasks_funhouse</text>
</g>
<!-- evt_aqm_metrics&#45;&gt;src_tasks_funhouse -->
<g id="edge11" class="edge">
<title>evt_aqm_metrics&#45;&gt;src_tasks_funhouse</title>
<path fill="none" stroke="green" d="M305.79,-252.07C324.12,-230.07 358.43,-192.73 395.79,-171.65 404.75,-166.59 414.55,-162.29 424.55,-158.65"/>
<polygon fill="green" stroke="green" points="425.84,-161.91 434.16,-155.35 423.56,-155.29 425.84,-161.91"/>
</g>
<!-- src_tasks_gate_controller -->
<g id="node15" class="node">
<title>src_tasks_gate_controller</title>
<polygon fill="lightgreen" stroke="black" points="610.29,-103.65 413.29,-103.65 413.29,-67.65 610.29,-67.65 610.29,-103.65"/>
<text text-anchor="middle" x="511.79" y="-81.95" font-family="Times,serif" font-size="14.00">src_tasks_gate_controller</text>
</g>
<!-- evt_aqm_metrics&#45;&gt;src_tasks_gate_controller -->
<g id="edge12" class="edge">
<title>evt_aqm_metrics&#45;&gt;src_tasks_gate_controller</title>
<path fill="none" stroke="green" d="M298.58,-251.58C311.77,-218.53 344.43,-148.42 395.79,-112.65 398.48,-110.77 401.29,-109.03 404.18,-107.4"/>
<polygon fill="green" stroke="green" points="405.77,-110.52 413.1,-102.87 402.6,-104.28 405.77,-110.52"/>
</g>
<!-- src_tasks_lathe_gate_controller -->
<g id="node16" class="node">
<title>src_tasks_lathe_gate_controller</title>
<polygon fill="lightgreen" stroke="black" points="1138.87,-339.65 898.87,-339.65 898.87,-303.65 1138.87,-303.65 1138.87,-339.65"/>
<text text-anchor="middle" x="1018.87" y="-317.95" font-family="Times,serif" font-size="14.00">src_tasks_lathe_gate_controller</text>
</g>
<!-- evt_aqm_metrics&#45;&gt;src_tasks_lathe_gate_controller -->
<g id="edge13" class="edge">
<title>evt_aqm_metrics&#45;&gt;src_tasks_lathe_gate_controller</title>
<path fill="none" stroke="green" d="M335.95,-283.33C354.28,-288.43 375.88,-293.7 395.79,-296.65 564.82,-321.71 762.32,-325.35 888.67,-324.47"/>
<polygon fill="green" stroke="green" points="888.81,-327.97 898.78,-324.39 888.75,-320.97 888.81,-327.97"/>
</g>
<!-- src_tasks_saw_gate_controller -->
<g id="node17" class="node">
<title>src_tasks_saw_gate_controller</title>
<polygon fill="lightgreen" stroke="black" points="627.79,-563.65 395.79,-563.65 395.79,-527.65 627.79,-527.65 627.79,-563.65"/>
<text text-anchor="middle" x="511.79" y="-541.95" font-family="Times,serif" font-size="14.00">src_tasks_saw_gate_controller</text>
</g>
<!-- evt_aqm_metrics&#45;&gt;src_tasks_saw_gate_controller -->
<g id="edge15" class="edge">
<title>evt_aqm_metrics&#45;&gt;src_tasks_saw_gate_controller</title>
<path fill="none" stroke="green" d="M294.22,-287.76C301.01,-332.97 324.99,-451.58 395.79,-513.65 399.53,-516.93 403.59,-519.88 407.87,-522.53"/>
<polygon fill="green" stroke="green" points="406.49,-525.77 416.93,-527.56 409.88,-519.65 406.49,-525.77"/>
</g>
<!-- src_tasks_sys_monitor -->
<g id="node18" class="node">
<title>src_tasks_sys_monitor</title>
<polygon fill="lightgreen" stroke="black" points="599.79,-471.65 423.79,-471.65 423.79,-435.65 599.79,-435.65 599.79,-471.65"/>
<text text-anchor="middle" x="511.79" y="-449.95" font-family="Times,serif" font-size="14.00">src_tasks_sys_monitor</text>
</g>
<!-- evt_aqm_metrics&#45;&gt;src_tasks_sys_monitor -->
<g id="edge16" class="edge">
<title>evt_aqm_metrics&#45;&gt;src_tasks_sys_monitor</title>
<path fill="none" stroke="green" d="M298.58,-287.71C311.77,-320.77 344.43,-390.87 395.79,-426.65 401.44,-430.59 407.59,-433.95 414.01,-436.84"/>
<polygon fill="green" stroke="green" points="413,-440.2 423.58,-440.72 415.63,-433.72 413,-440.2"/>
</g>
<!-- evt_system_any_active -->
<g id="node2" class="node">
<title>evt_system_any_active</title>
<ellipse fill="lightyellow" stroke="black" cx="759.33" cy="-269.65" rx="95.58" ry="18"/>
<text text-anchor="middle" x="759.33" y="-265.95" font-family="Times,serif" font-size="14.00">system.any_active</text>
</g>
<!-- evt_system_any_active&#45;&gt;src_tasks_aqm_announcer -->
<g id="edge17" class="edge">
<title>evt_system_any_active&#45;&gt;src_tasks_aqm_announcer</title>
<path fill="none" stroke="green" d="M854.04,-267.1C871.35,-266.63 889.58,-266.13 907.33,-265.65"/>
<polygon fill="green" stroke="green" points="907.82,-269.14 917.72,-265.37 907.63,-262.14 907.82,-269.14"/>
</g>
<!-- evt_system_any_active&#45;&gt;src_tasks_aqm_policy -->
<g id="edge18" class="edge">
<title>evt_system_any_active&#45;&gt;src_tasks_aqm_policy</title>
<path fill="none" stroke="green" d="M784.84,-287.01C810.35,-304.46 851.95,-331.21 890.87,-348.65 905.86,-355.36 922.34,-361.36 938.32,-366.52"/>
<polygon fill="green" stroke="green" points="937.6,-369.96 948.19,-369.62 939.7,-363.28 937.6,-369.96"/>
</g>
<!-- evt_system_any_active&#45;&gt;src_tasks_collector_controller -->
<g id="edge19" class="edge">
<title>evt_system_any_active&#45;&gt;src_tasks_collector_controller</title>
<path fill="none" stroke="green" d="M813.69,-254.73C851.2,-244.24 901.89,-230.07 943.38,-218.47"/>
<polygon fill="green" stroke="green" points="944.48,-221.8 953.17,-215.74 942.6,-215.06 944.48,-221.8"/>
</g>
<!-- evt_system_any_active&#45;&gt;src_tasks_collector_ssr_controller -->
<g id="edge20" class="edge">
<title>evt_system_any_active&#45;&gt;src_tasks_collector_ssr_controller</title>
<path fill="none" stroke="green" d="M782.64,-252.03C808.37,-231.88 852.12,-198.12 890.87,-170.65 920.68,-149.52 955.32,-126.72 980.88,-110.22"/>
<polygon fill="green" stroke="green" points="983.01,-113.01 989.52,-104.65 979.22,-107.12 983.01,-113.01"/>
</g>
<!-- evt_system_any_active&#45;&gt;src_tasks_display_status -->
<g id="edge21" class="edge">
<title>evt_system_any_active&#45;&gt;src_tasks_display_status</title>
<path fill="none" stroke="green" d="M776.91,-287.34C795.94,-307.73 827.97,-342.32 854.87,-372.65 871.19,-391.04 870.02,-401.63 890.87,-414.65 898.02,-419.11 905.76,-422.98 913.77,-426.32"/>
<polygon fill="green" stroke="green" points="912.68,-429.65 923.27,-430.01 915.22,-423.13 912.68,-429.65"/>
</g>
<!-- evt_system_any_active&#45;&gt;src_tasks_lathe_gate_controller -->
<g id="edge22" class="edge">
<title>evt_system_any_active&#45;&gt;src_tasks_lathe_gate_controller</title>
<path fill="none" stroke="green" d="M825.32,-282.77C853.55,-288.47 887.27,-295.28 918.53,-301.59"/>
<polygon fill="green" stroke="green" points="918.09,-305.07 928.59,-303.62 919.48,-298.21 918.09,-305.07"/>
</g>
<!-- evt_____off -->
<g id="node3" class="node">
<title>evt_____off</title>
<ellipse fill="lightyellow" stroke="black" cx="759.33" cy="-399.65" rx="46.29" ry="18"/>
<text text-anchor="middle" x="759.33" y="-395.95" font-family="Times,serif" font-size="14.00">{...}.off</text>
</g>
<!-- evt_____off&#45;&gt;src_tasks_aqm_policy -->
<g id="edge23" class="edge">
<title>evt_____off&#45;&gt;src_tasks_aqm_policy</title>
<path fill="none" stroke="green" d="M805.19,-397.56C837.94,-396.03 883.51,-393.91 924.08,-392.02"/>
<polygon fill="green" stroke="green" points="924.44,-395.5 934.27,-391.54 924.12,-388.51 924.44,-395.5"/>
</g>
<!-- evt_____off&#45;&gt;src_tasks_display_status -->
<g id="edge24" class="edge">
<title>evt_____off&#45;&gt;src_tasks_display_status</title>
<path fill="none" stroke="green" d="M801.42,-407.31C831.6,-412.93 874.01,-420.83 913.3,-428.16"/>
<polygon fill="green" stroke="green" points="912.74,-431.61 923.21,-430.01 914.03,-424.73 912.74,-431.61"/>
</g>
<!-- evt_____off&#45;&gt;src_tasks_lathe_gate_controller -->
<g id="edge25" class="edge">
<title>evt_____off&#45;&gt;src_tasks_lathe_gate_controller</title>
<path fill="none" stroke="green" d="M796.41,-388.72C835.73,-376.81 899.59,-357.47 948.66,-342.61"/>
<polygon fill="green" stroke="green" points="949.7,-345.95 958.26,-339.7 947.68,-339.25 949.7,-345.95"/>
</g>
<!-- evt_____on -->
<g id="node4" class="node">
<title>evt_____on</title>
<ellipse fill="lightyellow" stroke="black" cx="759.33" cy="-453.65" rx="45.49" ry="18"/>
<text text-anchor="middle" x="759.33" y="-449.95" font-family="Times,serif" font-size="14.00">{...}.on</text>
</g>
<!-- evt_____on&#45;&gt;src_tasks_aqm_policy -->
<g id="edge26" class="edge">
<title>evt_____on&#45;&gt;src_tasks_aqm_policy</title>
<path fill="none" stroke="green" d="M798.05,-443.98C834.58,-434.62 891.11,-420.13 937.69,-408.2"/>
<polygon fill="green" stroke="green" points="938.65,-411.56 947.47,-405.69 936.91,-404.78 938.65,-411.56"/>
</g>
<!-- evt_____on&#45;&gt;src_tasks_display_status -->
<g id="edge27" class="edge">
<title>evt_____on&#45;&gt;src_tasks_display_status</title>
<path fill="none" stroke="green" d="M804.9,-452.61C834.76,-451.91 875.39,-450.97 913.16,-450.09"/>
<polygon fill="green" stroke="green" points="913.29,-453.58 923.21,-449.85 913.13,-446.59 913.29,-453.58"/>
</g>
<!-- evt_____on&#45;&gt;src_tasks_lathe_gate_controller -->
<g id="edge28" class="edge">
<title>evt_____on&#45;&gt;src_tasks_lathe_gate_controller</title>
<path fill="none" stroke="green" d="M803.2,-448.77C820.69,-445.01 840.21,-438.38 854.87,-426.65 880.96,-405.77 864.99,-381.78 890.87,-360.65 899.15,-353.89 908.59,-348.3 918.5,-343.68"/>
<polygon fill="green" stroke="green" points="919.92,-346.88 927.71,-339.7 917.14,-340.45 919.92,-346.88"/>
</g>
<!-- src_hardware_pms1003 -->
<g id="node5" class="node">
<title>src_hardware_pms1003</title>
<polygon fill="lightblue" stroke="black" points="186,-314.65 0,-314.65 0,-278.65 186,-278.65 186,-314.65"/>
<text text-anchor="middle" x="93" y="-292.95" font-family="Times,serif" font-size="14.00">src_hardware_pms1003</text>
</g>
<!-- src_hardware_pms1003&#45;&gt;evt_aqm_metrics -->
<g id="edge1" class="edge">
<title>src_hardware_pms1003&#45;&gt;evt_aqm_metrics</title>
<path fill="none" stroke="blue" d="M186.21,-283.94C197.42,-282.39 208.72,-280.84 219.54,-279.34"/>
<polygon fill="blue" stroke="blue" points="220.31,-282.77 229.74,-277.94 219.36,-275.84 220.31,-282.77"/>
</g>
<!-- src_tasks_aqm_reader -->
<g id="node6" class="node">
<title>src_tasks_aqm_reader</title>
<polygon fill="lightblue" stroke="black" points="180,-260.65 6,-260.65 6,-224.65 180,-224.65 180,-260.65"/>
<text text-anchor="middle" x="93" y="-238.95" font-family="Times,serif" font-size="14.00">src_tasks_aqm_reader</text>
</g>
<!-- src_tasks_aqm_reader&#45;&gt;evt_aqm_metrics -->
<g id="edge2" class="edge">
<title>src_tasks_aqm_reader&#45;&gt;evt_aqm_metrics</title>
<path fill="none" stroke="blue" d="M180.21,-254.53C193.33,-256.34 206.73,-258.19 219.47,-259.94"/>
<polygon fill="blue" stroke="blue" points="219.13,-263.43 229.51,-261.33 220.09,-256.49 219.13,-263.43"/>
</g>
<!-- src_tasks_machine_manager&#45;&gt;evt_system_any_active -->
<g id="edge3" class="edge">
<title>src_tasks_machine_manager&#45;&gt;evt_system_any_active</title>
<path fill="none" stroke="blue" d="M621.56,-269.65C632.15,-269.65 642.89,-269.65 653.45,-269.65"/>
<polygon fill="blue" stroke="blue" points="653.5,-273.15 663.5,-269.65 653.5,-266.15 653.5,-273.15"/>
</g>
<!-- src_tasks_adc_watch -->
<g id="node8" class="node">
<title>src_tasks_adc_watch</title>
<polygon fill="lightblue" stroke="black" points="593.79,-417.65 429.79,-417.65 429.79,-381.65 593.79,-381.65 593.79,-417.65"/>
<text text-anchor="middle" x="511.79" y="-395.95" font-family="Times,serif" font-size="14.00">src_tasks_adc_watch</text>
</g>
<!-- src_tasks_adc_watch&#45;&gt;evt_____off -->
<g id="edge4" class="edge">
<title>src_tasks_adc_watch&#45;&gt;evt_____off</title>
<path fill="none" stroke="blue" d="M593.87,-399.65C629.67,-399.65 670.83,-399.65 703.02,-399.65"/>
<polygon fill="blue" stroke="blue" points="703.14,-403.15 713.14,-399.65 703.14,-396.15 703.14,-403.15"/>
</g>
<!-- src_tasks_adc_watch&#45;&gt;evt_____on -->
<g id="edge5" class="edge">
<title>src_tasks_adc_watch&#45;&gt;evt_____on</title>
<path fill="none" stroke="blue" d="M593.87,-417.48C632.1,-425.89 676.45,-435.64 709.46,-442.9"/>
<polygon fill="blue" stroke="blue" points="708.8,-446.34 719.31,-445.07 710.3,-439.5 708.8,-446.34"/>
</g>
</g>
</svg>
