<?xml version="1.0" encoding="UTF-8" standalone="no"?>
<!DOCTYPE svg PUBLIC "-//W3C//DTD SVG 1.1//EN"
 "http://www.w3.org/Graphics/SVG/1.1/DTD/svg11.dtd">
<!-- Generated by graphviz version 2.43.0 (0)
 -->
<!-- Title: ModuleDependencies Pages: 1 -->
<svg width="223pt" height="1914pt"
 viewBox="0.00 0.00 223.00 1914.00" xmlns="http://www.w3.org/2000/svg" xmlns:xlink="http://www.w3.org/1999/xlink">
<g id="graph0" class="graph" transform="scale(1 1) rotate(0) translate(4 1910)">
<title>ModuleDependencies</title>
<polygon fill="white" stroke="transparent" points="-4,4 -4,-1910 219,-1910 219,4 -4,4"/>
<g id="clust1" class="cluster">
<title>cluster_src</title>
<polygon fill="lightgrey" stroke="black" points="44,-8 44,-407 171,-407 171,-8 44,-8"/>
<text text-anchor="middle" x="107.5" y="-391.8" font-family="Times,serif" font-size="14.00">src</text>
</g>
<g id="clust2" class="cluster">
<title>cluster_src_hardware</title>
<polygon fill="lightgrey" stroke="black" points="52,-415 52,-1030 163,-1030 163,-415 52,-415"/>
<text text-anchor="middle" x="107.5" y="-1014.8" font-family="Times,serif" font-size="14.00">src.hardware</text>
</g>
<g id="clust3" class="cluster">
<title>cluster_src_tasks</title>
<polygon fill="lightgrey" stroke="black" points="8,-1038 8,-1815 207,-1815 207,-1038 8,-1038"/>
<text text-anchor="middle" x="107.5" y="-1799.8" font-family="Times,serif" font-size="14.00">src.tasks</text>
</g>
<g id="clust4" class="cluster">
<title>cluster_src_util</title>
<polygon fill="lightgrey" stroke="black" points="41.5,-1823 41.5,-1898 173.5,-1898 173.5,-1823 41.5,-1823"/>
<text text-anchor="middle" x="107.5" y="-1882.8" font-family="Times,serif" font-size="14.00">src.util</text>
</g>
<!-- src_config_loader -->
<g id="node1" class="node">
<title>src_config_loader</title>
<path fill="white" stroke="black" d="M151,-376C151,-376 64,-376 64,-376 58,-376 52,-370 52,-364 52,-364 52,-352 52,-352 52,-346 58,-340 64,-340 64,-340 151,-340 151,-340 157,-340 163,-346 163,-352 163,-352 163,-364 163,-364 163,-370 157,-376 151,-376"/>
<text text-anchor="middle" x="107.5" y="-354.3" font-family="Times,serif" font-size="14.00">config_loader</text>
</g>
<!-- src_event_bus -->
<g id="node2" class="node">
<title>src_event_bus</title>
<path fill="white" stroke="black" d="M140,-322C140,-322 75,-322 75,-322 69,-322 63,-316 63,-310 63,-310 63,-298 63,-298 63,-292 69,-286 75,-286 75,-286 140,-286 140,-286 146,-286 152,-292 152,-298 152,-298 152,-310 152,-310 152,-316 146,-322 140,-322"/>
<text text-anchor="middle" x="107.5" y="-300.3" font-family="Times,serif" font-size="14.00">event_bus</text>
</g>
<!-- src_events -->
<g id="node3" class="node">
<title>src_events</title>
<path fill="white" stroke="black" d="M127.5,-268C127.5,-268 87.5,-268 87.5,-268 81.5,-268 75.5,-262 75.5,-256 75.5,-256 75.5,-244 75.5,-244 75.5,-238 81.5,-232 87.5,-232 87.5,-232 127.5,-232 127.5,-232 133.5,-232 139.5,-238 139.5,-244 139.5,-244 139.5,-256 139.5,-256 139.5,-262 133.5,-268 127.5,-268"/>
<text text-anchor="middle" x="107.5" y="-246.3" font-family="Times,serif" font-size="14.00">events</text>
</g>
<!-- src_hardware -->
<g id="node4" class="node">
<title>src_hardware</title>
<path fill="white" stroke="black" d="M138,-214C138,-214 77,-214 77,-214 71,-214 65,-208 65,-202 65,-202 65,-190 65,-190 65,-184 71,-178 77,-178 77,-178 138,-178 138,-178 144,-178 150,-184 150,-190 150,-190 150,-202 150,-202 150,-208 144,-214 138,-214"/>
<text text-anchor="middle" x="107.5" y="-192.3" font-family="Times,serif" font-size="14.00">hardware</text>
</g>
<!-- src_main -->
<g id="node5" class="node">
<title>src_main</title>
<path fill="white" stroke="black" d="M122.5,-160C122.5,-160 92.5,-160 92.5,-160 86.5,-160 80.5,-154 80.5,-148 80.5,-148 80.5,-136 80.5,-136 80.5,-130 86.5,-124 92.5,-124 92.5,-124 122.5,-124 122.5,-124 128.5,-124 134.5,-130 134.5,-136 134.5,-136 134.5,-148 134.5,-148 134.5,-154 128.5,-160 122.5,-160"/>
<text text-anchor="middle" x="107.5" y="-138.3" font-family="Times,serif" font-size="14.00">main</text>
</g>
<!-- src_tasks -->
<g id="node6" class="node">
<title>src_tasks</title>
<path fill="white" stroke="black" d="M122.5,-106C122.5,-106 92.5,-106 92.5,-106 86.5,-106 80.5,-100 80.5,-94 80.5,-94 80.5,-82 80.5,-82 80.5,-76 86.5,-70 92.5,-70 92.5,-70 122.5,-70 122.5,-70 128.5,-70 134.5,-76 134.5,-82 134.5,-82 134.5,-94 134.5,-94 134.5,-100 128.5,-106 122.5,-106"/>
<text text-anchor="middle" x="107.5" y="-84.3" font-family="Times,serif" font-size="14.00">tasks</text>
</g>
<!-- src_util -->
<g id="node7" class="node">
<title>src_util</title>
<path fill="white" stroke="black" d="M122.5,-52C122.5,-52 92.5,-52 92.5,-52 86.5,-52 80.5,-46 80.5,-40 80.5,-40 80.5,-28 80.5,-28 80.5,-22 86.5,-16 92.5,-16 92.5,-16 122.5,-16 122.5,-16 128.5,-16 134.5,-22 134.5,-28 134.5,-28 134.5,-40 134.5,-40 134.5,-46 128.5,-52 122.5,-52"/>
<text text-anchor="middle" x="107.5" y="-30.3" font-family="Times,serif" font-size="14.00">util</text>
</g>
<!-- src_hardware_ads1115 -->
<g id="node8" class="node">
<title>src_hardware_ads1115</title>
<path fill="white" stroke="black" d="M134,-999C134,-999 81,-999 81,-999 75,-999 69,-993 69,-987 69,-987 69,-975 69,-975 69,-969 75,-963 81,-963 81,-963 134,-963 134,-963 140,-963 146,-969 146,-975 146,-975 146,-987 146,-987 146,-993 140,-999 134,-999"/>
<text text-anchor="middle" x="107.5" y="-977.3" font-family="Times,serif" font-size="14.00">ads1115</text>
</g>
<!-- src_hardware_gpio -->
<g id="node9" class="node">
<title>src_hardware_gpio</title>
<path fill="white" stroke="black" d="M122.5,-945C122.5,-945 92.5,-945 92.5,-945 86.5,-945 80.5,-939 80.5,-933 80.5,-933 80.5,-921 80.5,-921 80.5,-915 86.5,-909 92.5,-909 92.5,-909 122.5,-909 122.5,-909 128.5,-909 134.5,-915 134.5,-921 134.5,-921 134.5,-933 134.5,-933 134.5,-939 128.5,-945 122.5,-945"/>
<text text-anchor="middle" x="107.5" y="-923.3" font-family="Times,serif" font-size="14.00">gpio</text>
</g>
<!-- src_hardware_hw -->
<g id="node10" class="node">
<title>src_hardware_hw</title>
<path fill="white" stroke="black" d="M122.5,-891C122.5,-891 92.5,-891 92.5,-891 86.5,-891 80.5,-885 80.5,-879 80.5,-879 80.5,-867 80.5,-867 80.5,-861 86.5,-855 92.5,-855 92.5,-855 122.5,-855 122.5,-855 128.5,-855 134.5,-861 134.5,-867 134.5,-867 134.5,-879 134.5,-879 134.5,-885 128.5,-891 122.5,-891"/>
<text text-anchor="middle" x="107.5" y="-869.3" font-family="Times,serif" font-size="14.00">hw</text>
</g>
<!-- src_hardware_i2c_bus -->
<g id="node11" class="node">
<title>src_hardware_i2c_bus</title>
<path fill="white" stroke="black" d="M130.5,-837C130.5,-837 84.5,-837 84.5,-837 78.5,-837 72.5,-831 72.5,-825 72.5,-825 72.5,-813 72.5,-813 72.5,-807 78.5,-801 84.5,-801 84.5,-801 130.5,-801 130.5,-801 136.5,-801 142.5,-807 142.5,-813 142.5,-813 142.5,-825 142.5,-825 142.5,-831 136.5,-837 130.5,-837"/>
<text text-anchor="middle" x="107.5" y="-815.3" font-family="Times,serif" font-size="14.00">i2c_bus</text>
</g>
<!-- src_hardware_mock_hw -->
<g id="node12" class="node">
<title>src_hardware_mock_hw</title>
<path fill="white" stroke="black" d="M136.5,-783C136.5,-783 78.5,-783 78.5,-783 72.5,-783 66.5,-777 66.5,-771 66.5,-771 66.5,-759 66.5,-759 66.5,-753 72.5,-747 78.5,-747 78.5,-747 136.5,-747 136.5,-747 142.5,-747 148.5,-753 148.5,-759 148.5,-759 148.5,-771 148.5,-771 148.5,-777 142.5,-783 136.5,-783"/>
<text text-anchor="middle" x="107.5" y="-761.3" font-family="Times,serif" font-size="14.00">mock_hw</text>
</g>
<!-- src_hardware_pcf8574 -->
<g id="node13" class="node">
<title>src_hardware_pcf8574</title>
<path fill="white" stroke="black" d="M132.5,-729C132.5,-729 82.5,-729 82.5,-729 76.5,-729 70.5,-723 70.5,-717 70.5,-717 70.5,-705 70.5,-705 70.5,-699 76.5,-693 82.5,-693 82.5,-693 132.5,-693 132.5,-693 138.5,-693 144.5,-699 144.5,-705 144.5,-705 144.5,-717 144.5,-717 144.5,-723 138.5,-729 132.5,-729"/>
<text text-anchor="middle" x="107.5" y="-707.3" font-family="Times,serif" font-size="14.00">pcf8574</text>
</g>
<!-- src_hardware_pcf_leds -->
<g id="node14" class="node">
<title>src_hardware_pcf_leds</title>
<path fill="white" stroke="black" d="M132.5,-675C132.5,-675 82.5,-675 82.5,-675 76.5,-675 70.5,-669 70.5,-663 70.5,-663 70.5,-651 70.5,-651 70.5,-645 76.5,-639 82.5,-639 82.5,-639 132.5,-639 132.5,-639 138.5,-639 144.5,-645 144.5,-651 144.5,-651 144.5,-663 144.5,-663 144.5,-669 138.5,-675 132.5,-675"/>
<text text-anchor="middle" x="107.5" y="-653.3" font-family="Times,serif" font-size="14.00">pcf_leds</text>
</g>
<!-- src_hardware_pcf_relays -->
<g id="node15" class="node">
<title>src_hardware_pcf_relays</title>
<path fill="white" stroke="black" d="M140,-621C140,-621 75,-621 75,-621 69,-621 63,-615 63,-609 63,-609 63,-597 63,-597 63,-591 69,-585 75,-585 75,-585 140,-585 140,-585 146,-585 152,-591 152,-597 152,-597 152,-609 152,-609 152,-615 146,-621 140,-621"/>
<text text-anchor="middle" x="107.5" y="-599.3" font-family="Times,serif" font-size="14.00">pcf_relays</text>
</g>
<!-- src_hardware_pms1003 -->
<g id="node16" class="node">
<title>src_hardware_pms1003</title>
<path fill="white" stroke="black" d="M137,-567C137,-567 78,-567 78,-567 72,-567 66,-561 66,-555 66,-555 66,-543 66,-543 66,-537 72,-531 78,-531 78,-531 137,-531 137,-531 143,-531 149,-537 149,-543 149,-543 149,-555 149,-555 149,-561 143,-567 137,-567"/>
<text text-anchor="middle" x="107.5" y="-545.3" font-family="Times,serif" font-size="14.00">pms1003</text>
</g>
<!-- src_hardware_relays -->
<g id="node17" class="node">
<title>src_hardware_relays</title>
<path fill="white" stroke="black" d="M125.5,-513C125.5,-513 89.5,-513 89.5,-513 83.5,-513 77.5,-507 77.5,-501 77.5,-501 77.5,-489 77.5,-489 77.5,-483 83.5,-477 89.5,-477 89.5,-477 125.5,-477 125.5,-477 131.5,-477 137.5,-483 137.5,-489 137.5,-489 137.5,-501 137.5,-501 137.5,-507 131.5,-513 125.5,-513"/>
<text text-anchor="middle" x="107.5" y="-491.3" font-family="Times,serif" font-size="14.00">relays</text>
</g>
<!-- src_hardware_uart -->
<g id="node18" class="node">
<title>src_hardware_uart</title>
<path fill="white" stroke="black" d="M122.5,-459C122.5,-459 92.5,-459 92.5,-459 86.5,-459 80.5,-453 80.5,-447 80.5,-447 80.5,-435 80.5,-435 80.5,-429 86.5,-423 92.5,-423 92.5,-423 122.5,-423 122.5,-423 128.5,-423 134.5,-429 134.5,-435 134.5,-435 134.5,-447 134.5,-447 134.5,-453 128.5,-459 122.5,-459"/>
<text text-anchor="middle" x="107.5" y="-437.3" font-family="Times,serif" font-size="14.00">uart</text>
</g>
<!-- src_tasks_adc_watch -->
<g id="node19" class="node">
<title>src_tasks_adc_watch</title>
<path fill="white" stroke="black" d="M141,-1784C141,-1784 74,-1784 74,-1784 68,-1784 62,-1778 62,-1772 62,-1772 62,-1760 62,-1760 62,-1754 68,-1748 74,-1748 74,-1748 141,-1748 141,-1748 147,-1748 153,-1754 153,-1760 153,-1760 153,-1772 153,-1772 153,-1778 147,-1784 141,-1784"/>
<text text-anchor="middle" x="107.5" y="-1762.3" font-family="Times,serif" font-size="14.00">adc_watch</text>
</g>
<!-- src_tasks_aqm_announcer -->
<g id="node20" class="node">
<title>src_tasks_aqm_announcer</title>
<path fill="white" stroke="black" d="M160,-1730C160,-1730 55,-1730 55,-1730 49,-1730 43,-1724 43,-1718 43,-1718 43,-1706 43,-1706 43,-1700 49,-1694 55,-1694 55,-1694 160,-1694 160,-1694 166,-1694 172,-1700 172,-1706 172,-1706 172,-1718 172,-1718 172,-1724 166,-1730 160,-1730"/>
<text text-anchor="middle" x="107.5" y="-1708.3" font-family="Times,serif" font-size="14.00">aqm_announcer</text>
</g>
<!-- src_tasks_aqm_policy -->
<g id="node21" class="node">
<title>src_tasks_aqm_policy</title>
<path fill="white" stroke="black" d="M143.5,-1676C143.5,-1676 71.5,-1676 71.5,-1676 65.5,-1676 59.5,-1670 59.5,-1664 59.5,-1664 59.5,-1652 59.5,-1652 59.5,-1646 65.5,-1640 71.5,-1640 71.5,-1640 143.5,-1640 143.5,-1640 149.5,-1640 155.5,-1646 155.5,-1652 155.5,-1652 155.5,-1664 155.5,-1664 155.5,-1670 149.5,-1676 143.5,-1676"/>
<text text-anchor="middle" x="107.5" y="-1654.3" font-family="Times,serif" font-size="14.00">aqm_policy</text>
</g>
<!-- src_tasks_aqm_reader -->
<g id="node22" class="node">
<title>src_tasks_aqm_reader</title>
<path fill="white" stroke="black" d="M146,-1622C146,-1622 69,-1622 69,-1622 63,-1622 57,-1616 57,-1610 57,-1610 57,-1598 57,-1598 57,-1592 63,-1586 69,-1586 69,-1586 146,-1586 146,-1586 152,-1586 158,-1592 158,-1598 158,-1598 158,-1610 158,-1610 158,-1616 152,-1622 146,-1622"/>
<text text-anchor="middle" x="107.5" y="-1600.3" font-family="Times,serif" font-size="14.00">aqm_reader</text>
</g>
<!-- src_tasks_collector_controller -->
<g id="node23" class="node">
<title>src_tasks_collector_controller</title>
<path fill="white" stroke="black" d="M173,-1568C173,-1568 42,-1568 42,-1568 36,-1568 30,-1562 30,-1556 30,-1556 30,-1544 30,-1544 30,-1538 36,-1532 42,-1532 42,-1532 173,-1532 173,-1532 179,-1532 185,-1538 185,-1544 185,-1544 185,-1556 185,-1556 185,-1562 179,-1568 173,-1568"/>
<text text-anchor="middle" x="107.5" y="-1546.3" font-family="Times,serif" font-size="14.00">collector_controller</text>
</g>
<!-- src_tasks_collector_ssr_controller -->
<g id="node24" class="node">
<title>src_tasks_collector_ssr_controller</title>
<path fill="white" stroke="black" d="M187,-1514C187,-1514 28,-1514 28,-1514 22,-1514 16,-1508 16,-1502 16,-1502 16,-1490 16,-1490 16,-1484 22,-1478 28,-1478 28,-1478 187,-1478 187,-1478 193,-1478 199,-1484 199,-1490 199,-1490 199,-1502 199,-1502 199,-1508 193,-1514 187,-1514"/>
<text text-anchor="middle" x="107.5" y="-1492.3" font-family="Times,serif" font-size="14.00">collector_ssr_controller</text>
</g>
<!-- src_tasks_display_status -->
<g id="node25" class="node">
<title>src_tasks_display_status</title>
<path fill="white" stroke="black" d="M155,-1460C155,-1460 60,-1460 60,-1460 54,-1460 48,-1454 48,-1448 48,-1448 48,-1436 48,-1436 48,-1430 54,-1424 60,-1424 60,-1424 155,-1424 155,-1424 161,-1424 167,-1430 167,-1436 167,-1436 167,-1448 167,-1448 167,-1454 161,-1460 155,-1460"/>
<text text-anchor="middle" x="107.5" y="-1438.3" font-family="Times,serif" font-size="14.00">display_status</text>
</g>
<!-- src_tasks_funhouse -->
<g id="node26" class="node">
<title>src_tasks_funhouse</title>
<path fill="white" stroke="black" d="M136.5,-1406C136.5,-1406 78.5,-1406 78.5,-1406 72.5,-1406 66.5,-1400 66.5,-1394 66.5,-1394 66.5,-1382 66.5,-1382 66.5,-1376 72.5,-1370 78.5,-1370 78.5,-1370 136.5,-1370 136.5,-1370 142.5,-1370 148.5,-1376 148.5,-1382 148.5,-1382 148.5,-1394 148.5,-1394 148.5,-1400 142.5,-1406 136.5,-1406"/>
<text text-anchor="middle" x="107.5" y="-1384.3" font-family="Times,serif" font-size="14.00">funhouse</text>
</g>
<!-- src_tasks_gate4_led_diag -->
<g id="node27" class="node">
<title>src_tasks_gate4_led_diag</title>
<path fill="white" stroke="black" d="M157,-1352C157,-1352 58,-1352 58,-1352 52,-1352 46,-1346 46,-1340 46,-1340 46,-1328 46,-1328 46,-1322 52,-1316 58,-1316 58,-1316 157,-1316 157,-1316 163,-1316 169,-1322 169,-1328 169,-1328 169,-1340 169,-1340 169,-1346 163,-1352 157,-1352"/>
<text text-anchor="middle" x="107.5" y="-1330.3" font-family="Times,serif" font-size="14.00">gate4_led_diag</text>
</g>
<!-- src_tasks_gate_controller -->
<g id="node28" class="node">
<title>src_tasks_gate_controller</title>
<path fill="white" stroke="black" d="M158,-1298C158,-1298 57,-1298 57,-1298 51,-1298 45,-1292 45,-1286 45,-1286 45,-1274 45,-1274 45,-1268 51,-1262 57,-1262 57,-1262 158,-1262 158,-1262 164,-1262 170,-1268 170,-1274 170,-1274 170,-1286 170,-1286 170,-1292 164,-1298 158,-1298"/>
<text text-anchor="middle" x="107.5" y="-1276.3" font-family="Times,serif" font-size="14.00">gate_controller</text>
</g>
<!-- src_tasks_lathe_gate_controller -->
<g id="node29" class="node">
<title>src_tasks_lathe_gate_controller</title>
<path fill="white" stroke="black" d="M179,-1244C179,-1244 36,-1244 36,-1244 30,-1244 24,-1238 24,-1232 24,-1232 24,-1220 24,-1220 24,-1214 30,-1208 36,-1208 36,-1208 179,-1208 179,-1208 185,-1208 191,-1214 191,-1220 191,-1220 191,-1232 191,-1232 191,-1238 185,-1244 179,-1244"/>
<text text-anchor="middle" x="107.5" y="-1222.3" font-family="Times,serif" font-size="14.00">lathe_gate_controller</text>
</g>
<!-- src_tasks_machine_manager -->
<g id="node30" class="node">
<title>src_tasks_machine_manager</title>
<path fill="white" stroke="black" d="M168.5,-1190C168.5,-1190 46.5,-1190 46.5,-1190 40.5,-1190 34.5,-1184 34.5,-1178 34.5,-1178 34.5,-1166 34.5,-1166 34.5,-1160 40.5,-1154 46.5,-1154 46.5,-1154 168.5,-1154 168.5,-1154 174.5,-1154 180.5,-1160 180.5,-1166 180.5,-1166 180.5,-1178 180.5,-1178 180.5,-1184 174.5,-1190 168.5,-1190"/>
<text text-anchor="middle" x="107.5" y="-1168.3" font-family="Times,serif" font-size="14.00">machine_manager</text>
</g>
<!-- src_tasks_saw_gate_controller -->
<g id="node31" class="node">
<title>src_tasks_saw_gate_controller</title>
<path fill="white" stroke="black" d="M175,-1136C175,-1136 40,-1136 40,-1136 34,-1136 28,-1130 28,-1124 28,-1124 28,-1112 28,-1112 28,-1106 34,-1100 40,-1100 40,-1100 175,-1100 175,-1100 181,-1100 187,-1106 187,-1112 187,-1112 187,-1124 187,-1124 187,-1130 181,-1136 175,-1136"/>
<text text-anchor="middle" x="107.5" y="-1114.3" font-family="Times,serif" font-size="14.00">saw_gate_controller</text>
</g>
<!-- src_tasks_sys_monitor -->
<g id="node32" class="node">
<title>src_tasks_sys_monitor</title>
<path fill="white" stroke="black" d="M147,-1082C147,-1082 68,-1082 68,-1082 62,-1082 56,-1076 56,-1070 56,-1070 56,-1058 56,-1058 56,-1052 62,-1046 68,-1046 68,-1046 147,-1046 147,-1046 153,-1046 159,-1052 159,-1058 159,-1058 159,-1070 159,-1070 159,-1076 153,-1082 147,-1082"/>
<text text-anchor="middle" x="107.5" y="-1060.3" font-family="Times,serif" font-size="14.00">sys_monitor</text>
</g>
<!-- src_util_logging_setup -->
<g id="node33" class="node">
<title>src_util_logging_setup</title>
<path fill="white" stroke="black" d="M153.5,-1867C153.5,-1867 61.5,-1867 61.5,-1867 55.5,-1867 49.5,-1861 49.5,-1855 49.5,-1855 49.5,-1843 49.5,-1843 49.5,-1837 55.5,-1831 61.5,-1831 61.5,-1831 153.5,-1831 153.5,-1831 159.5,-1831 165.5,-1837 165.5,-1843 165.5,-1843 165.5,-1855 165.5,-1855 165.5,-1861 159.5,-1867 153.5,-1867"/>
<text text-anchor="middle" x="107.5" y="-1845.3" font-family="Times,serif" font-size="14.00">logging_setup</text>
</g>
</g>
</svg>
