<?xml version="1.0" encoding="UTF-8" standalone="no"?>
<!DOCTYPE svg PUBLIC "-//W3C//DTD SVG 1.1//EN"
 "http://www.w3.org/Graphics/SVG/1.1/DTD/svg11.dtd">
<!-- Generated by graphviz version 2.43.0 (0)
 -->
<!-- Title: GateStateMachine Pages: 1 -->
<svg width="873pt" height="299pt"
 viewBox="0.00 0.00 873.39 298.75" xmlns="http://www.w3.org/2000/svg" xmlns:xlink="http://www.w3.org/1999/xlink">
<g id="graph0" class="graph" transform="scale(1 1) rotate(0) translate(4 294.75)">
<title>GateStateMachine</title>
<polygon fill="#f5f5f5" stroke="transparent" points="-4,4 -4,-294.75 869.39,-294.75 869.39,4 -4,4"/>
<text text-anchor="start" x="336.2" y="-274.95" font-family="Arial" font-weight="bold" font-size="16.00">Blast Gate State Machine</text>
<!-- closed -->
<g id="node1" class="node">
<title>closed</title>
<ellipse fill="#ef5350" stroke="black" stroke-width="3" cx="294.55" cy="-44.55" rx="44.6" ry="44.6"/>
<text text-anchor="start" x="271.05" y="-51.25" font-family="Arial" font-weight="bold" font-size="11.00" fill="white">CLOSED</text>
<text text-anchor="start" x="273.05" y="-41.85" font-family="Arial" font-size="9.00" fill="white">LED: RED</text>
<text text-anchor="start" x="271.55" y="-32.85" font-family="Arial" font-size="9.00" fill="white">Relay: OFF</text>
</g>
<!-- opening -->
<g id="node2" class="node">
<title>opening</title>
<ellipse fill="#ffa726" stroke="black" cx="453.3" cy="-117.55" rx="50.41" ry="50.41"/>
<text text-anchor="start" x="427.3" y="-124.25" font-family="Arial" font-weight="bold" font-size="11.00" fill="white">OPENING</text>
<text text-anchor="start" x="425.8" y="-114.85" font-family="Arial" font-size="9.00" fill="white">Relay: OPEN</text>
<text text-anchor="start" x="434.3" y="-105.85" font-family="Arial" font-size="9.00" fill="white">Timer: 6s</text>
</g>
<!-- closed&#45;&gt;opening -->
<g id="edge1" class="edge">
<title>closed&#45;&gt;opening</title>
<path fill="none" stroke="#4caf50" stroke-width="2" d="M335.51,-63.16C354.54,-72.02 377.6,-82.76 398.17,-92.34"/>
<polygon fill="#4caf50" stroke="#4caf50" stroke-width="2" points="396.89,-95.6 407.43,-96.65 399.84,-89.26 396.89,-95.6"/>
<text text-anchor="start" x="357.1" y="-88.35" font-family="Arial" font-style="italic" font-size="9.00">tool.on</text>
</g>
<!-- open -->
<g id="node3" class="node">
<title>open</title>
<ellipse fill="#66bb6a" stroke="black" stroke-width="3" cx="643.71" cy="-214.55" rx="50.41" ry="50.41"/>
<text text-anchor="start" x="627.71" y="-221.25" font-family="Arial" font-weight="bold" font-size="11.00" fill="white">OPEN</text>
<text text-anchor="start" x="616.21" y="-211.85" font-family="Arial" font-size="9.00" fill="white">LED: GREEN</text>
<text text-anchor="start" x="620.71" y="-202.85" font-family="Arial" font-size="9.00" fill="white">Relay: OFF</text>
</g>
<!-- opening&#45;&gt;open -->
<g id="edge2" class="edge">
<title>opening&#45;&gt;open</title>
<path fill="none" stroke="black" stroke-width="2" d="M498.47,-140.29C525.76,-154.34 560.93,-172.44 589.71,-187.26"/>
<polygon fill="black" stroke="black" stroke-width="2" points="588.32,-190.48 598.81,-191.95 591.52,-184.26 588.32,-190.48"/>
<text text-anchor="middle" x="548.5" y="-180.35" font-family="Arial" font-size="9.00">timer expired</text>
</g>
<!-- closing -->
<g id="node4" class="node">
<title>closing</title>
<ellipse fill="#ffa726" stroke="black" cx="811.65" cy="-101.55" rx="53.98" ry="53.98"/>
<text text-anchor="start" x="786.15" y="-108.25" font-family="Arial" font-weight="bold" font-size="11.00" fill="white">CLOSING</text>
<text text-anchor="start" x="781.65" y="-98.85" font-family="Arial" font-size="9.00" fill="white">Relay: CLOSE</text>
<text text-anchor="start" x="792.65" y="-89.85" font-family="Arial" font-size="9.00" fill="white">Timer: 6s</text>
</g>
<!-- opening&#45;&gt;closing -->
<g id="edge5" class="edge">
<title>opening&#45;&gt;closing</title>
<path fill="none" stroke="red" stroke-dasharray="5,2" d="M503.48,-115.34C567.04,-112.49 677.81,-107.51 747.53,-104.38"/>
<polygon fill="red" stroke="red" points="748.09,-107.86 757.93,-103.92 747.78,-100.87 748.09,-107.86"/>
<text text-anchor="start" x="629.71" y="-122.35" font-family="Arial" font-style="italic" font-size="9.00">tool.off</text>
<text text-anchor="start" x="626.71" y="-113.35" font-family="Arial" font-size="9.00">(cancel)</text>
</g>
<!-- open&#45;&gt;closing -->
<g id="edge3" class="edge">
<title>open&#45;&gt;closing</title>
<path fill="none" stroke="#f44336" stroke-width="2" d="M685.73,-186.62C707.7,-171.66 734.99,-153.07 758.46,-137.09"/>
<polygon fill="#f44336" stroke="#f44336" stroke-width="2" points="760.62,-139.85 766.91,-131.33 756.68,-134.07 760.62,-139.85"/>
<text text-anchor="start" x="711.91" y="-171.35" font-family="Arial" font-style="italic" font-size="9.00">tool.off</text>
</g>
<!-- closing&#45;&gt;closed -->
<g id="edge4" class="edge">
<title>closing&#45;&gt;closed</title>
<path fill="none" stroke="black" stroke-width="2" d="M759.9,-86.1C753.22,-84.39 746.43,-82.81 739.91,-81.55 719.73,-77.63 714.37,-78.63 693.91,-76.55 609.35,-67.95 588.23,-65.4 503.5,-58.55 451.19,-54.31 391.4,-50.38 349.4,-47.77"/>
<polygon fill="black" stroke="black" stroke-width="2" points="349.59,-44.28 339.39,-47.15 349.15,-51.26 349.59,-44.28"/>
<text text-anchor="middle" x="548.5" y="-68.35" font-family="Arial" font-size="9.00">timer expired</text>
</g>
<!-- closing&#45;&gt;opening -->
<g id="edge6" class="edge">
<title>closing&#45;&gt;opening</title>
<path fill="none" stroke="green" stroke-dasharray="5,2" d="M758.53,-92.31C738.41,-89.18 715.16,-86.09 693.91,-84.55 649.4,-81.32 637.83,-79.37 593.5,-84.55 566.17,-87.74 536.43,-94.35 511.47,-100.82"/>
<polygon fill="green" stroke="green" points="510.58,-97.44 501.81,-103.39 512.37,-104.21 510.58,-97.44"/>
<text text-anchor="start" x="629.71" y="-96.35" font-family="Arial" font-style="italic" font-size="9.00">tool.on</text>
<text text-anchor="start" x="626.71" y="-87.35" font-family="Arial" font-size="9.00">(cancel)</text>
</g>
<!-- start -->
<g id="node5" class="node">
<title>start</title>
<ellipse fill="black" stroke="black" cx="106.5" cy="-44.55" rx="10.8" ry="10.8"/>
</g>
<!-- start&#45;&gt;closed -->
<g id="edge7" class="edge">
<title>start&#45;&gt;closed</title>
<path fill="none" stroke="black" stroke-width="2" d="M117.5,-44.55C140.14,-44.55 196.68,-44.55 239.62,-44.55"/>
<polygon fill="black" stroke="black" stroke-width="2" points="239.66,-48.05 249.66,-44.55 239.66,-41.05 239.66,-48.05"/>
</g>
<!-- note -->
<g id="node6" class="node">
<title>note</title>
<polygon fill="#fffde7" stroke="black" points="207,-125.55 0,-125.55 0,-73.55 213,-73.55 213,-119.55 207,-125.55"/>
<polyline fill="none" stroke="black" points="207,-125.55 207,-119.55 "/>
<polyline fill="none" stroke="black" points="213,-119.55 207,-119.55 "/>
<text text-anchor="start" x="8" y="-113.75" font-family="Arial" font-weight="bold" font-size="11.00">Notes:</text>
<text text-anchor="start" x="8" y="-102.75" font-family="Arial" font-size="11.00">• 0.1s deadtime between relay transitions</text>
<text text-anchor="start" x="8" y="-91.75" font-family="Arial" font-size="11.00">• Max 6s drive time prevents overheating</text>
<text text-anchor="start" x="8" y="-80.75" font-family="Arial" font-size="11.00">• Relay lock prevents conflicts</text>
</g>
</g>
</svg>
