<?xml version="1.0" encoding="UTF-8" standalone="no"?>
<!DOCTYPE svg PUBLIC "-//W3C//DTD SVG 1.1//EN"
 "http://www.w3.org/Graphics/SVG/1.1/DTD/svg11.dtd">
<!-- Generated by graphviz version 2.43.0 (0)
 -->
<!-- Title: DustCollectorSystem Pages: 1 -->
<svg width="1219pt" height="441pt"
 viewBox="0.00 0.00 1219.00 440.98" xmlns="http://www.w3.org/2000/svg" xmlns:xlink="http://www.w3.org/1999/xlink">
<g id="graph0" class="graph" transform="scale(1 1) rotate(0) translate(4 436.98)">
<title>DustCollectorSystem</title>
<polygon fill="#f8f8f8" stroke="transparent" points="-4,4 -4,-436.98 1215,-436.98 1215,4 -4,4"/>
<text text-anchor="start" x="474.5" y="-415.58" font-family="Arial" font-weight="bold" font-size="18.00">Dust Collector Control System</text>
<text text-anchor="start" x="537" y="-402.38" font-family="Arial" font-size="12.00">Event&#45;Driven Architecture</text>
<g id="clust1" class="cluster">
<title>cluster_hardware</title>
<polygon fill="#e3f2fd" stroke="#1976d2" stroke-width="2" points="8,-169.98 8,-283.98 444,-283.98 444,-169.98 8,-169.98"/>
<text text-anchor="start" x="135.5" y="-269.78" font-family="Arial" font-weight="bold" font-size="14.00">Hardware Abstraction Layer</text>
</g>
<g id="clust2" class="cluster">
<title>cluster_i2c</title>
<polygon fill="#bbdefb" stroke="#1565c0" stroke-width="2" points="16,-177.98 16,-252.98 280,-252.98 280,-177.98 16,-177.98"/>
<text text-anchor="middle" x="148" y="-237.78" font-family="Arial" font-size="14.00">I2C Bus</text>
</g>
<g id="clust3" class="cluster">
<title>cluster_tasks</title>
<polygon fill="#fff3e0" stroke="#f57c00" stroke-width="2" points="82,-8 82,-143.98 1106,-143.98 1106,-8 82,-8"/>
<text text-anchor="start" x="522.5" y="-129.78" font-family="Arial" font-weight="bold" font-size="14.00">Control Tasks (Async)</text>
</g>
<g id="clust4" class="cluster">
<title>cluster_sensors</title>
<polygon fill="#ffe0b2" stroke="#f57c00" stroke-width="2" points="512,-16 512,-112.98 800,-112.98 800,-16 512,-16"/>
<text text-anchor="middle" x="656" y="-97.78" font-family="Arial" font-size="14.00">Sensors</text>
</g>
<g id="clust5" class="cluster">
<title>cluster_controllers</title>
<polygon fill="#ffe0b2" stroke="#f57c00" stroke-width="2" points="90,-23.78 90,-105.2 504,-105.2 504,-23.78 90,-23.78"/>
<text text-anchor="middle" x="297" y="-90" font-family="Arial" font-size="14.00">Controllers</text>
</g>
<g id="clust6" class="cluster">
<title>cluster_policy</title>
<polygon fill="#ffe0b2" stroke="#f57c00" stroke-width="2" points="808,-16 808,-112.98 1098,-112.98 1098,-16 808,-16"/>
<text text-anchor="middle" x="953" y="-97.78" font-family="Arial" font-size="14.00">Policy &amp; Logic</text>
</g>
<g id="clust7" class="cluster">
<title>cluster_events</title>
<polygon fill="#f3e5f5" stroke="#7b1fa2" stroke-width="2" points="376,-311.98 376,-386.98 950,-386.98 950,-311.98 376,-311.98"/>
<text text-anchor="start" x="623.5" y="-372.78" font-family="Arial" font-weight="bold" font-size="14.00">Event Types</text>
</g>
<g id="clust8" class="cluster">
<title>cluster_legend</title>
<polygon fill="white" stroke="gray" points="1114,-26.99 1114,-386.98 1203,-386.98 1203,-26.99 1114,-26.99"/>
<text text-anchor="middle" x="1158.5" y="-371.78" font-family="Arial" font-size="14.00">Legend</text>
</g>
<!-- event_bus -->
<g id="node1" class="node">
<title>event_bus</title>
<defs>
<linearGradient id="l_0" gradientUnits="userSpaceOnUse" x1="582" y1="-222.99" x2="582" y2="-184.98" >
<stop offset="0" style="stop-color:#ff6b6b;stop-opacity:1.;"/>
<stop offset="1" style="stop-color:#c92a2a;stop-opacity:1.;"/>
</linearGradient>
</defs>
<path fill="url(#l_0)" stroke="black" stroke-width="2" d="M642.5,-219.53C642.5,-221.44 615.38,-222.99 582,-222.99 548.62,-222.99 521.5,-221.44 521.5,-219.53 521.5,-219.53 521.5,-188.43 521.5,-188.43 521.5,-186.53 548.62,-184.98 582,-184.98 615.38,-184.98 642.5,-186.53 642.5,-188.43 642.5,-188.43 642.5,-219.53 642.5,-219.53"/>
<path fill="none" stroke="black" stroke-width="2" d="M642.5,-219.53C642.5,-217.62 615.38,-216.08 582,-216.08 548.62,-216.08 521.5,-217.62 521.5,-219.53"/>
<text text-anchor="start" x="554.5" y="-206.18" font-family="Arial" font-weight="bold" font-size="11.00" fill="white">Event Bus</text>
<text text-anchor="start" x="529.5" y="-196.78" font-family="Arial" font-size="9.00" fill="white">Pub/Sub Message Broker</text>
</g>
<!-- saw_gate -->
<g id="node9" class="node">
<title>saw_gate</title>
<ellipse fill="#81c784" stroke="black" cx="153" cy="-52.99" rx="55.31" ry="21.43"/>
<text text-anchor="start" x="128.5" y="-56.19" font-family="Arial" font-weight="bold" font-size="11.00">Saw Gate</text>
<text text-anchor="start" x="122" y="-45.19" font-family="Arial" font-size="11.00">Gate Control</text>
</g>
<!-- event_bus&#45;&gt;saw_gate -->
<g id="edge19" class="edge">
<title>event_bus&#45;&gt;saw_gate</title>
<path fill="none" stroke="#7cb342" stroke-width="2" d="M548.2,-184.91C535.62,-179.05 521,-173.23 507,-169.98 423.37,-150.58 397.33,-182.63 314,-161.98 303.97,-159.5 302.95,-154.79 293,-151.98 260.31,-142.77 246.33,-161.12 217,-143.98 193.31,-130.14 176.11,-103.66 165.55,-82.99"/>
<polygon fill="#7cb342" stroke="#7cb342" stroke-width="2" points="168.68,-81.43 161.16,-73.97 162.38,-84.5 168.68,-81.43"/>
<text text-anchor="middle" x="334" y="-154.78" font-family="Arial" font-size="9.00">subscribe</text>
</g>
<!-- lathe_gate -->
<g id="node10" class="node">
<title>lathe_gate</title>
<ellipse fill="#81c784" stroke="black" cx="281" cy="-52.99" rx="55.31" ry="21.43"/>
<text text-anchor="start" x="252.5" y="-56.19" font-family="Arial" font-weight="bold" font-size="11.00">Lathe Gate</text>
<text text-anchor="start" x="250" y="-45.19" font-family="Arial" font-size="11.00">Gate Control</text>
</g>
<!-- event_bus&#45;&gt;lathe_gate -->
<g id="edge20" class="edge">
<title>event_bus&#45;&gt;lathe_gate</title>
<path fill="none" stroke="#7cb342" stroke-width="2" d="M547.78,-184.94C535.28,-179.16 520.81,-173.38 507,-169.98 436.19,-152.55 402.31,-189.07 345,-143.98 324.06,-127.51 306.99,-102.4 295.76,-82.88"/>
<polygon fill="#7cb342" stroke="#7cb342" stroke-width="2" points="298.79,-81.13 290.88,-74.09 292.67,-84.53 298.79,-81.13"/>
<text text-anchor="middle" x="394" y="-154.78" font-family="Arial" font-size="9.00">subscribe</text>
</g>
<!-- collector_ssr -->
<g id="node11" class="node">
<title>collector_ssr</title>
<ellipse fill="#81c784" stroke="black" cx="425" cy="-52.99" rx="70.92" ry="21.43"/>
<text text-anchor="start" x="387.5" y="-56.19" font-family="Arial" font-weight="bold" font-size="11.00">Collector SSR</text>
<text text-anchor="start" x="383" y="-45.19" font-family="Arial" font-size="11.00">Main Fan Control</text>
</g>
<!-- event_bus&#45;&gt;collector_ssr -->
<g id="edge21" class="edge">
<title>event_bus&#45;&gt;collector_ssr</title>
<path fill="none" stroke="#7cb342" stroke-width="2" d="M546.92,-185.01C534.58,-179.38 520.44,-173.68 507,-169.98 492.97,-166.12 452.46,-172.1 442,-161.98 421.68,-142.33 419.25,-108.99 420.77,-84.54"/>
<polygon fill="#7cb342" stroke="#7cb342" stroke-width="2" points="424.28,-84.61 421.66,-74.34 417.3,-84 424.28,-84.61"/>
<text text-anchor="middle" x="462" y="-154.78" font-family="Arial" font-size="9.00">subscribe</text>
</g>
<!-- aqm_policy -->
<g id="node12" class="node">
<title>aqm_policy</title>
<ellipse fill="#aed581" stroke="black" cx="870" cy="-52.99" rx="54.39" ry="28.98"/>
<text text-anchor="start" x="839.5" y="-61.69" font-family="Arial" font-weight="bold" font-size="11.00">AQM Policy</text>
<text text-anchor="start" x="845" y="-50.69" font-family="Arial" font-size="11.00">Air Quality</text>
<text text-anchor="start" x="856" y="-39.69" font-family="Arial" font-size="11.00">Rules</text>
</g>
<!-- event_bus&#45;&gt;aqm_policy -->
<g id="edge22" class="edge">
<title>event_bus&#45;&gt;aqm_policy</title>
<path fill="none" stroke="#7cb342" stroke-width="2" d="M617.96,-185.07C630.12,-179.58 643.93,-173.95 657,-169.98 720.49,-150.71 747.66,-179.03 804,-143.98 824.73,-131.08 841.05,-109.07 852.27,-90.05"/>
<polygon fill="#7cb342" stroke="#7cb342" stroke-width="2" points="855.35,-91.71 857.22,-81.28 849.26,-88.27 855.35,-91.71"/>
<text text-anchor="middle" x="807" y="-154.78" font-family="Arial" font-size="9.00">subscribe</text>
</g>
<!-- aqm_announcer -->
<g id="node13" class="node">
<title>aqm_announcer</title>
<ellipse fill="#aed581" stroke="black" cx="1016" cy="-52.99" rx="73.58" ry="21.43"/>
<text text-anchor="start" x="972" y="-56.19" font-family="Arial" font-weight="bold" font-size="11.00">AQM Announcer</text>
<text text-anchor="start" x="978.5" y="-45.19" font-family="Arial" font-size="11.00">Status Updates</text>
</g>
<!-- event_bus&#45;&gt;aqm_announcer -->
<g id="edge23" class="edge">
<title>event_bus&#45;&gt;aqm_announcer</title>
<path fill="none" stroke="#7cb342" stroke-width="2" d="M615.8,-184.95C628.39,-179.09 643.01,-173.26 657,-169.98 694.69,-161.15 792.53,-166.24 831,-161.98 876.75,-156.92 892.61,-166.06 933,-143.98 959.76,-129.35 982.6,-102.85 997.51,-82.38"/>
<polygon fill="#7cb342" stroke="#7cb342" stroke-width="2" points="1000.49,-84.22 1003.4,-74.03 994.77,-80.18 1000.49,-84.22"/>
<text text-anchor="middle" x="935" y="-154.78" font-family="Arial" font-size="9.00">subscribe</text>
</g>
<!-- ads1115 -->
<g id="node2" class="node">
<title>ads1115</title>
<polygon fill="#4fc3f7" stroke="black" points="271.5,-221.98 208.5,-221.98 208.5,-185.98 271.5,-185.98 271.5,-221.98"/>
<text text-anchor="start" x="216.5" y="-207.18" font-family="Arial" font-weight="bold" font-size="11.00" fill="white">ADS1115</text>
<text text-anchor="start" x="227.5" y="-196.18" font-family="Arial" font-size="11.00" fill="white">ADC</text>
</g>
<!-- adc_watch -->
<g id="node7" class="node">
<title>adc_watch</title>
<ellipse fill="#ffb74d" stroke="black" cx="588" cy="-52.99" rx="67.76" ry="28.98"/>
<text text-anchor="start" x="557.5" y="-61.69" font-family="Arial" font-weight="bold" font-size="11.00">ADC Watch</text>
<text text-anchor="start" x="556.5" y="-50.69" font-family="Arial" font-size="11.00">Saw &amp; Lathe</text>
<text text-anchor="start" x="548" y="-39.69" font-family="Arial" font-size="11.00">Current Sensors</text>
</g>
<!-- ads1115&#45;&gt;adc_watch -->
<g id="edge1" class="edge">
<title>ads1115&#45;&gt;adc_watch</title>
<path fill="none" stroke="#1976d2" stroke-width="2" d="M247.63,-185.98C253.94,-174.16 264.11,-159.26 278,-151.98 300.65,-140.12 484.86,-154.86 508,-143.98 532.39,-132.52 552.5,-109.78 566.46,-90.03"/>
<polygon fill="#1976d2" stroke="#1976d2" stroke-width="2" points="569.53,-91.74 572.25,-81.5 563.74,-87.81 569.53,-91.74"/>
<text text-anchor="middle" x="285.5" y="-154.78" font-family="Arial" font-size="9.00">I2C</text>
</g>
<!-- pcf_leds -->
<g id="node3" class="node">
<title>pcf_leds</title>
<polygon fill="#4fc3f7" stroke="black" points="190.5,-221.98 119.5,-221.98 119.5,-185.98 190.5,-185.98 190.5,-221.98"/>
<text text-anchor="start" x="131.5" y="-207.18" font-family="Arial" font-weight="bold" font-size="11.00" fill="white">PCF8574</text>
<text text-anchor="start" x="127.5" y="-196.18" font-family="Arial" font-size="11.00" fill="white">LED Driver</text>
</g>
<!-- pcf_leds&#45;&gt;saw_gate -->
<g id="edge2" class="edge">
<title>pcf_leds&#45;&gt;saw_gate</title>
<path fill="none" stroke="#1976d2" stroke-dasharray="5,2" d="M154.52,-185.83C154.33,-178.48 154.13,-169.81 154,-161.98 153.56,-135.84 153.3,-106.14 153.16,-84.51"/>
<polygon fill="#1976d2" stroke="#1976d2" points="156.66,-84.27 153.1,-74.29 149.66,-84.32 156.66,-84.27"/>
<text text-anchor="middle" x="161.5" y="-154.78" font-family="Arial" font-size="9.00">I2C</text>
</g>
<!-- pcf_leds&#45;&gt;lathe_gate -->
<g id="edge3" class="edge">
<title>pcf_leds&#45;&gt;lathe_gate</title>
<path fill="none" stroke="#1976d2" stroke-dasharray="5,2" d="M171.92,-185.53C181.89,-175.47 194.89,-162.72 207,-151.98 211.26,-148.21 213.09,-148.12 217,-143.98 234.88,-125.06 251.8,-100.9 263.74,-82.37"/>
<polygon fill="#1976d2" stroke="#1976d2" points="266.79,-84.1 269.19,-73.78 260.88,-80.35 266.79,-84.1"/>
<text text-anchor="middle" x="214.5" y="-154.78" font-family="Arial" font-size="9.00">I2C</text>
</g>
<!-- pcf_relays -->
<g id="node4" class="node">
<title>pcf_relays</title>
<polygon fill="#4fc3f7" stroke="black" points="101.5,-221.98 24.5,-221.98 24.5,-185.98 101.5,-185.98 101.5,-221.98"/>
<text text-anchor="start" x="39.5" y="-207.18" font-family="Arial" font-weight="bold" font-size="11.00" fill="white">PCF8574</text>
<text text-anchor="start" x="32.5" y="-196.18" font-family="Arial" font-size="11.00" fill="white">Relay Driver</text>
</g>
<!-- pcf_relays&#45;&gt;saw_gate -->
<g id="edge4" class="edge">
<title>pcf_relays&#45;&gt;saw_gate</title>
<path fill="none" stroke="#1976d2" stroke-width="2" d="M64.68,-185.8C66.17,-175.59 68.93,-162.61 74,-151.98 86.85,-125.07 108.46,-98.99 125.83,-80.52"/>
<polygon fill="#1976d2" stroke="#1976d2" stroke-width="2" points="128.57,-82.72 132.98,-73.08 123.52,-77.87 128.57,-82.72"/>
<text text-anchor="middle" x="81.5" y="-154.78" font-family="Arial" font-size="9.00">I2C</text>
</g>
<!-- pcf_relays&#45;&gt;lathe_gate -->
<g id="edge5" class="edge">
<title>pcf_relays&#45;&gt;lathe_gate</title>
<path fill="none" stroke="#1976d2" stroke-width="2" d="M81.28,-185.92C94.98,-174.23 114.76,-159.53 135,-151.98 169.31,-139.19 185.31,-162.33 217,-143.98 240.74,-130.24 257.93,-103.74 268.49,-83.05"/>
<polygon fill="#1976d2" stroke="#1976d2" stroke-width="2" points="271.65,-84.54 272.87,-74.01 265.35,-81.48 271.65,-84.54"/>
<text text-anchor="middle" x="142.5" y="-154.78" font-family="Arial" font-size="9.00">I2C</text>
</g>
<!-- uart_aqm -->
<g id="node5" class="node">
<title>uart_aqm</title>
<polygon fill="#66bb6a" stroke="black" points="436,-224.48 370,-224.48 370,-183.48 436,-183.48 436,-224.48"/>
<text text-anchor="start" x="378.5" y="-212.68" font-family="Arial" font-weight="bold" font-size="11.00" fill="white">PMS1003</text>
<text text-anchor="start" x="378" y="-201.68" font-family="Arial" font-size="11.00" fill="white">Air Quality</text>
<text text-anchor="start" x="384.5" y="-190.68" font-family="Arial" font-size="11.00" fill="white">Monitor</text>
</g>
<!-- aqm_reader -->
<g id="node8" class="node">
<title>aqm_reader</title>
<ellipse fill="#ffb74d" stroke="black" cx="733" cy="-52.99" rx="58.88" ry="28.98"/>
<text text-anchor="start" x="699.5" y="-61.69" font-family="Arial" font-weight="bold" font-size="11.00">AQM Reader</text>
<text text-anchor="start" x="707" y="-50.69" font-family="Arial" font-size="11.00">Particulate</text>
<text text-anchor="start" x="707.5" y="-39.69" font-family="Arial" font-size="11.00">Monitoring</text>
</g>
<!-- uart_aqm&#45;&gt;aqm_reader -->
<g id="edge6" class="edge">
<title>uart_aqm&#45;&gt;aqm_reader</title>
<path fill="none" stroke="#43a047" stroke-width="2" d="M426.09,-183.4C433.33,-178.23 441.62,-173.2 450,-169.98 494.93,-152.75 623.28,-167.98 665,-143.98 686.39,-131.68 703.2,-109.67 714.76,-90.51"/>
<polygon fill="#43a047" stroke="#43a047" stroke-width="2" points="717.89,-92.07 719.85,-81.66 711.83,-88.58 717.89,-92.07"/>
<text text-anchor="middle" x="651.5" y="-154.78" font-family="Arial" font-size="9.00">UART</text>
</g>
<!-- gpio -->
<g id="node6" class="node">
<title>gpio</title>
<polygon fill="#ffa726" stroke="black" points="352,-221.98 290,-221.98 290,-185.98 352,-185.98 352,-221.98"/>
<text text-anchor="start" x="307" y="-207.18" font-family="Arial" font-weight="bold" font-size="11.00" fill="white">GPIO</text>
<text text-anchor="start" x="298" y="-196.18" font-family="Arial" font-size="11.00" fill="white">Direct I/O</text>
</g>
<!-- gpio&#45;&gt;collector_ssr -->
<g id="edge7" class="edge">
<title>gpio&#45;&gt;collector_ssr</title>
<path fill="none" stroke="#fb8c00" stroke-width="2" d="M305.93,-185.91C299.73,-179.93 292.11,-173.78 284,-169.98 261.09,-159.26 212.74,-170.48 230,-151.98 247.47,-133.25 322.01,-155.28 345,-143.98 372.09,-130.67 394.07,-103.75 408.08,-82.81"/>
<polygon fill="#fb8c00" stroke="#fb8c00" stroke-width="2" points="411.12,-84.56 413.6,-74.25 405.24,-80.76 411.12,-84.56"/>
<text text-anchor="middle" x="242.5" y="-154.78" font-family="Arial" font-size="9.00">Direct</text>
</g>
<!-- saw_on -->
<g id="node14" class="node">
<title>saw_on</title>
<ellipse fill="#ba68c8" stroke="black" cx="720" cy="-337.98" rx="30.13" ry="18"/>
<text text-anchor="middle" x="720" y="-335.18" font-family="Arial" font-size="11.00" fill="white">saw.on</text>
</g>
<!-- adc_watch&#45;&gt;saw_on -->
<g id="edge8" class="edge">
<title>adc_watch&#45;&gt;saw_on</title>
<path fill="none" stroke="#e91e63" stroke-width="2" d="M609.36,-80.79C624.34,-99.12 645.17,-123.69 665,-143.98 677.1,-156.36 685.74,-154.77 694,-169.98 718.18,-214.55 721.56,-275.04 721.21,-309.65"/>
<polygon fill="#e91e63" stroke="#e91e63" stroke-width="2" points="717.7,-309.85 720.98,-319.93 724.7,-310.01 717.7,-309.85"/>
<text text-anchor="middle" x="735.5" y="-201.78" font-family="Arial" font-size="9.00">publish</text>
</g>
<!-- saw_off -->
<g id="node15" class="node">
<title>saw_off</title>
<ellipse fill="#ba68c8" stroke="black" cx="414" cy="-337.98" rx="30.13" ry="18"/>
<text text-anchor="middle" x="414" y="-335.18" font-family="Arial" font-size="11.00" fill="white">saw.off</text>
</g>
<!-- adc_watch&#45;&gt;saw_off -->
<g id="edge9" class="edge">
<title>adc_watch&#45;&gt;saw_off</title>
<path fill="none" stroke="#e91e63" stroke-width="2" d="M580.56,-82.19C572.42,-107.24 556.82,-142.78 530,-161.98 512.42,-174.58 498.22,-155.67 482,-169.98 442.36,-204.97 470.05,-235.93 448,-283.98 443.53,-293.72 437.51,-303.76 431.77,-312.46"/>
<polygon fill="#e91e63" stroke="#e91e63" stroke-width="2" points="428.71,-310.72 425.97,-320.96 434.5,-314.67 428.71,-310.72"/>
<text text-anchor="middle" x="497.5" y="-201.78" font-family="Arial" font-size="9.00">publish</text>
</g>
<!-- lathe_on -->
<g id="node16" class="node">
<title>lathe_on</title>
<ellipse fill="#ba68c8" stroke="black" cx="909" cy="-337.98" rx="33.15" ry="18"/>
<text text-anchor="middle" x="909" y="-335.18" font-family="Arial" font-size="11.00" fill="white">lathe.on</text>
</g>
<!-- adc_watch&#45;&gt;lathe_on -->
<g id="edge10" class="edge">
<title>adc_watch&#45;&gt;lathe_on</title>
<path fill="none" stroke="#e91e63" stroke-width="2" d="M603.88,-81.51C617.38,-102.22 638.73,-129.45 665,-143.98 699.4,-163.01 809.02,-145.78 840,-169.98 884.1,-204.44 900.24,-271.97 905.98,-309.74"/>
<polygon fill="#e91e63" stroke="#e91e63" stroke-width="2" points="902.56,-310.57 907.39,-320 909.49,-309.62 902.56,-310.57"/>
<text text-anchor="middle" x="916.5" y="-201.78" font-family="Arial" font-size="9.00">publish</text>
</g>
<!-- lathe_off -->
<g id="node17" class="node">
<title>lathe_off</title>
<ellipse fill="#ba68c8" stroke="black" cx="639" cy="-337.98" rx="33.15" ry="18"/>
<text text-anchor="middle" x="639" y="-335.18" font-family="Arial" font-size="11.00" fill="white">lathe.off</text>
</g>
<!-- adc_watch&#45;&gt;lathe_off -->
<g id="edge11" class="edge">
<title>adc_watch&#45;&gt;lathe_off</title>
<path fill="none" stroke="#e91e63" stroke-width="2" d="M608.03,-80.9C623.45,-103.4 643.51,-137.02 652,-169.98 664.64,-219.05 658.08,-233.68 652,-283.98 650.96,-292.58 649.01,-301.79 646.92,-310.09"/>
<polygon fill="#e91e63" stroke="#e91e63" stroke-width="2" points="643.48,-309.43 644.27,-319.99 650.24,-311.23 643.48,-309.43"/>
<text text-anchor="middle" x="674.5" y="-201.78" font-family="Arial" font-size="9.00">publish</text>
</g>
<!-- aqm_metrics -->
<g id="node18" class="node">
<title>aqm_metrics</title>
<ellipse fill="#ba68c8" stroke="black" cx="813" cy="-337.98" rx="45.2" ry="18"/>
<text text-anchor="middle" x="813" y="-335.18" font-family="Arial" font-size="11.00" fill="white">aqm.metrics</text>
</g>
<!-- aqm_reader&#45;&gt;aqm_metrics -->
<g id="edge12" class="edge">
<title>aqm_reader&#45;&gt;aqm_metrics</title>
<path fill="none" stroke="#e91e63" stroke-width="2" d="M746.27,-81.54C756.96,-104.68 771.69,-138.87 781,-169.98 795.44,-218.21 804.84,-276.3 809.51,-309.7"/>
<polygon fill="#e91e63" stroke="#e91e63" stroke-width="2" points="806.04,-310.2 810.86,-319.64 812.98,-309.26 806.04,-310.2"/>
<text text-anchor="middle" x="820.5" y="-201.78" font-family="Arial" font-size="9.00">publish</text>
</g>
<!-- saw_on&#45;&gt;event_bus -->
<g id="edge13" class="edge">
<title>saw_on&#45;&gt;event_bus</title>
<path fill="none" stroke="#e91e63" stroke-dasharray="5,2" d="M702.44,-323.09C689.54,-312.68 671.78,-297.9 657,-283.98 638.94,-266.98 619.71,-246.67 605.24,-230.9"/>
<polygon fill="#e91e63" stroke="#e91e63" points="607.46,-228.14 598.13,-223.1 602.28,-232.85 607.46,-228.14"/>
</g>
<!-- saw_off&#45;&gt;event_bus -->
<g id="edge14" class="edge">
<title>saw_off&#45;&gt;event_bus</title>
<path fill="none" stroke="#e91e63" stroke-dasharray="5,2" d="M432.44,-323.68C438.75,-319.54 445.99,-315.22 453,-311.98 466.92,-305.56 472.56,-309.35 486,-301.98 517.69,-284.61 545.69,-253.51 563.16,-231.2"/>
<polygon fill="#e91e63" stroke="#e91e63" points="566.03,-233.21 569.32,-223.13 560.47,-228.96 566.03,-233.21"/>
</g>
<!-- lathe_on&#45;&gt;event_bus -->
<g id="edge15" class="edge">
<title>lathe_on&#45;&gt;event_bus</title>
<path fill="none" stroke="#e91e63" stroke-dasharray="5,2" d="M889.73,-323.29C882.85,-319.02 874.85,-314.71 867,-311.98 867,-311.98 657,-283.98 657,-283.98 633.4,-271.94 613.18,-249.42 599.69,-231.5"/>
<polygon fill="#e91e63" stroke="#e91e63" points="602.33,-229.18 593.63,-223.14 596.67,-233.29 602.33,-229.18"/>
</g>
<!-- lathe_off&#45;&gt;event_bus -->
<g id="edge16" class="edge">
<title>lathe_off&#45;&gt;event_bus</title>
<path fill="none" stroke="#e91e63" stroke-dasharray="5,2" d="M631.78,-320.26C622.27,-298.24 605.42,-259.21 593.98,-232.73"/>
<polygon fill="#e91e63" stroke="#e91e63" points="597.07,-231.05 589.89,-223.26 590.64,-233.82 597.07,-231.05"/>
</g>
<!-- aqm_metrics&#45;&gt;event_bus -->
<g id="edge17" class="edge">
<title>aqm_metrics&#45;&gt;event_bus</title>
<path fill="none" stroke="#e91e63" stroke-dasharray="5,2" d="M786.18,-323.5C777.62,-319.49 768.02,-315.28 759,-311.98 756.24,-310.97 659.52,-285.49 657,-283.98 634.55,-270.54 614.46,-248.55 600.74,-231.18"/>
<polygon fill="#e91e63" stroke="#e91e63" points="603.39,-228.89 594.53,-223.08 597.83,-233.15 603.39,-228.89"/>
</g>
<!-- sys_any_active -->
<g id="node19" class="node">
<title>sys_any_active</title>
<ellipse fill="#ba68c8" stroke="black" cx="525" cy="-337.98" rx="62.58" ry="18"/>
<text text-anchor="middle" x="525" y="-335.18" font-family="Arial" font-size="11.00" fill="white">system.any_active</text>
</g>
<!-- sys_any_active&#45;&gt;event_bus -->
<g id="edge18" class="edge">
<title>sys_any_active&#45;&gt;event_bus</title>
<path fill="none" stroke="#e91e63" stroke-dasharray="5,2" d="M532.34,-320C541.88,-297.89 558.68,-258.98 570.07,-232.61"/>
<polygon fill="#e91e63" stroke="#e91e63" points="573.39,-233.74 574.14,-223.17 566.97,-230.97 573.39,-233.74"/>
</g>
<!-- leg_pub -->
<g id="node20" class="node">
<title>leg_pub</title>
<polygon fill="lightgrey" stroke="transparent" points="1176,-355.98 1122,-355.98 1122,-319.98 1176,-319.98 1176,-355.98"/>
<text text-anchor="middle" x="1149" y="-335.18" font-family="Arial" font-size="11.00">Publish</text>
</g>
<!-- leg_sub -->
<g id="node21" class="node">
<title>leg_sub</title>
<polygon fill="lightgrey" stroke="transparent" points="1187.5,-221.98 1122.5,-221.98 1122.5,-185.98 1187.5,-185.98 1187.5,-221.98"/>
<text text-anchor="middle" x="1155" y="-201.18" font-family="Arial" font-size="11.00">Subscribe</text>
</g>
<!-- leg_pub&#45;&gt;leg_sub -->
<g id="edge24" class="edge">
<title>leg_pub&#45;&gt;leg_sub</title>
<path fill="none" stroke="#e91e63" stroke-width="2" d="M1149.78,-319.73C1150.8,-297.49 1152.56,-258.58 1153.76,-232.31"/>
<polygon fill="#e91e63" stroke="#e91e63" stroke-width="2" points="1157.26,-232.39 1154.22,-222.24 1150.26,-232.07 1157.26,-232.39"/>
<text text-anchor="middle" x="1173" y="-294.78" font-family="Arial" font-size="9.00">Event Flow</text>
</g>
<!-- leg_hw -->
<g id="node22" class="node">
<title>leg_hw</title>
<polygon fill="lightgrey" stroke="transparent" points="1187.5,-70.99 1122.5,-70.99 1122.5,-34.99 1187.5,-34.99 1187.5,-70.99"/>
<text text-anchor="middle" x="1155" y="-50.19" font-family="Arial" font-size="11.00">Hardware</text>
</g>
<!-- leg_sub&#45;&gt;leg_hw -->
<g id="edge25" class="edge">
<title>leg_sub&#45;&gt;leg_hw</title>
<path fill="none" stroke="#1976d2" stroke-width="2" d="M1155,-185.89C1155,-160.43 1155,-112.27 1155,-81.72"/>
<polygon fill="#1976d2" stroke="#1976d2" stroke-width="2" points="1158.5,-81.34 1155,-71.34 1151.5,-81.34 1158.5,-81.34"/>
<text text-anchor="middle" x="1182.5" y="-154.78" font-family="Arial" font-size="9.00">Hardware I/O</text>
</g>
</g>
</svg>
